<svg xmlns="http://www.w3.org/2000/svg" viewBox="0 0 3598.17 1379.17"><title>Asset 1</title><g id="Layer_2" data-name="Layer 2"><g id="Layer_1-2" data-name="Layer 1"><path d="M1.44,3C125.89,12.58,228.37,98.34,299,195.86c77.5,106.95,126.66,231,200.35,340.39A1060.64,1060.64,0,0,0,748.1,796c97,71.72,216.75,137.95,341.77,125,92.84-9.6,188.87-70.24,212.78-164.79,10.79-42.67,5.16-97.17-34.11-124-31.57-21.55-74.48-14.78-105,5.22-87.14,57.1-40.37,177.38,33,223,49.86,31,110.2,39.43,167.9,40.19,58,.76,118.78-4.48,171.16-31.4C1638,816.6,1681.48,694.53,1735,600.15a2389.44,2389.44,0,0,1,225.49-329.72c41-50.35,83.69-100,129.52-146,44.16-44.39,97.52-84.79,163.14-83.78,120.63,1.86,205.29,123.94,258.72,217.66,65.6,115.08,118.58,251.65,75.68,384.12-39.26,121.22-137.69,200.33-228.15,282.93-44.19,40.35-75.79,85.79-92.62,143.6-9,30.86-14.47,62.61-19.75,94.28-5,29.8-9.77,60-8.81,90.27,1.53,48.24,20.49,95,66,116.91,35.82,17.21,73.38,8.87,97.38-22.75,24.3-32,32.08-83,66.67-106.33,12.69-8.56,27.07-12.5,29.86,7.15,2.63,18.47-6.48,37.12-20.48,48.86-27.65,23.17-73.41,18.48-104.07,3.64-38.7-18.74-29.35-57.46-2.4-81.56,26.28-23.5,61.17-31.37,95.2-36,71.52-9.81,143.84,2.08,213.69,17.5,65.73,14.5,130.71,31.84,197.13,43.15a1454.59,1454.59,0,0,0,182.57,19.59c125.24,5.29,251.86-6.75,372.34-42.23a930.8,930.8,0,0,0,165.26-66.44c1.71-.89.2-3.48-1.51-2.59-202.29,104.8-436.38,126.64-659.9,97.5-116.56-15.2-228.58-53.18-345-68.17-56.62-7.29-115-7.6-170.35,8-31.87,9-75.11,34.53-77.11,72.08-2.47,46.42,66.87,58.53,100.85,53.11,38.21-6.09,72.61-46.43,50.37-84.57a1.47,1.47,0,0,0-1.3-.74c-61.49,6.26-66.81,91.6-104.34,127.82-35.18,33.95-87.43,17.93-117.17-14.88-37.35-41.21-33.45-102.71-26-153.86,7-47.83,14.7-96.8,31.32-142.36,18-49.45,50-88,88.66-122.85,68-61.13,137.91-119.19,186.21-198.23,47.41-77.59,63.93-165.43,47.33-255-17.59-94.87-64-185.93-116.9-265.84-43.51-65.77-102-134-179.81-158.54C2221,20.05,2149,61.88,2092,118.2c-70.31,69.44-133.79,147.12-193,226.1a2390.73,2390.73,0,0,0-168.14,257.12C1687,679,1651.93,768.9,1585.24,830.53c-76.13,70.34-194.75,77.79-292.68,61.17-48.54-8.24-97.14-27-131-64-30.64-33.42-50.06-80.72-40-126.25,8.8-39.62,42.83-69.45,82.06-77.52,47.78-9.83,87.8,19,98.12,66.26,20.41,93.44-57.93,176.86-138.29,209.31-92.29,37.26-193.85,16.92-281.07-24.6C704.51,790.23,558.2,636.4,460.26,467.76c-93-160.14-168.18-354.57-347.13-438.16A321.58,321.58,0,0,0,1.44,0c-1.93-.15-1.92,2.85,0,3Z"/></g></g></svg>