<svg xmlns="http://www.w3.org/2000/svg" viewBox="0 0 1956.21 871.64"><defs><style>.cls-1{fill:red;opacity:0.11;}</style></defs><title>Asset 1</title><g id="Layer_2" data-name="Layer 2"><g id="Layer_1-2" data-name="Layer 1"><path class="cls-1" d="M63.2,31.53a78.46,78.46,0,0,1,14-5.29,49.67,49.67,0,0,1,13.7-1.15l-2-.1,8.67.91-2-.22,6.56,1.47a59.57,59.57,0,0,1,9.58,3.5A100.67,100.67,0,0,1,124,37a150.29,150.29,0,0,1,28.1,22.33,169.89,169.89,0,0,1,21.2,25.55c2.74,4.07,5.26,8.3,7.61,12.61a97,97,0,0,1,4.72,9.86q3.3,7.79,7.21,15.3l-.74-1.56,5,12.05-.66-1.58,4.39,12.27-.57-1.6,3.81,12.46-.48-1.61,3.32,12.64-.4-1.62c2.69,11.81,5.17,23.6,7.27,35.54,1.36,7.73,2.61,15.47,3.87,23.21,3.22,19.84,6.32,39.7,10.2,59.42C236.53,326.2,251,370,276.49,407.16A212.26,212.26,0,0,0,346.37,472a249.27,249.27,0,0,0,66.51,25.54,306.92,306.92,0,0,0,85.05,7.29c20.74-1.05,41.61-3.85,61.58-9.62,16.55-4.78,32.91-10.81,48-19.1s29.67-18.2,41.66-30.73A154.53,154.53,0,0,0,663,429.14a133.82,133.82,0,0,0,17.89-34.58l1.91-5.48a131.17,131.17,0,0,0,4.15-20.82,138.71,138.71,0,0,0,.33-27.14,148,148,0,0,0-14-52.1,143.3,143.3,0,0,0-27.7-39.37c-15.55-15.73-35.79-26.76-57.14-32.29-35.77-9.26-75.7-3.91-107.36,15.32-20.05,12.18-36,29.8-46.94,50.47-12.9,24.29-19.3,51.84-22.43,79a243.56,243.56,0,0,0-.22,57.12c1.82,15,5.15,30.35,10.83,44.44,1.4,3.46,2.81,7,4.41,10.42a160.72,160.72,0,0,0,10.69,19.26,132.36,132.36,0,0,0,23.44,27.75,171.94,171.94,0,0,0,19.44,15.21,187.57,187.57,0,0,0,27,14.73c20,9,41.08,14.87,62.55,19.22,12.54,2.54,25.34,4.43,38,6.28,15.38,2.26,30.84,3.36,46.35,4.12a417.32,417.32,0,0,0,48.11-.88,438.48,438.48,0,0,0,92.25-16.47,429.3,429.3,0,0,0,86.08-35.25c27.11-14.77,52.91-32.59,75.64-53.53a364.73,364.73,0,0,0,56-64.78c16.8-25,29.89-52,41.44-79.73,12.21-29.33,22.19-59.53,33.38-89.25,10.48-27.83,21.79-55.61,36.91-81.29,4.77-8.1,10-15.94,15.46-23.55a218.76,218.76,0,0,1,17.76-21.21q5.84-5.38,12.12-10.23a147.34,147.34,0,0,1,13.1-8.88,112.29,112.29,0,0,1,13.91-7.05A91.32,91.32,0,0,1,1211,83.82l-1.95.41,9.39-1.79-2,.31,9.48-.95-2,.2a69.26,69.26,0,0,1,35.71,7.84l-8.39-4.15,14.73,7.7-8-4.7,14.09,8.73-7.59-5.21a174.15,174.15,0,0,1,39.57,36.46q4.8,6,9.2,12.28c4.42,6.36,8.6,12.87,12.45,19.6s7.32,13.59,10.51,20.62q1.82,4.31,3.67,8.61a258.59,258.59,0,0,1,11,24.34c20.92,54.72,23.88,114.38,21.35,172.36-1.55,35.59-5.56,71.05-9.61,106.43-4.71,41.15-10,82.26-12.62,123.61-1.45,22.81-2.16,45.65-1.49,68.51q.32,14.95,1.71,29.82,1,15.08,3.24,30c3.18,17.95,8.52,36,17,52.19a115.56,115.56,0,0,0,20.58,28.3c11.72,11.71,26.26,19.89,42,25,13.66,4.45,28.85,5.77,43.13,4.89a186.54,186.54,0,0,0,32.09-4.81c22.91-5.51,44.82-14.92,65.73-25.63,19.36-9.92,37.87-21.17,54.74-34.95,19.56-16,36.38-35.94,47.44-58.73a147.09,147.09,0,0,0,12.37-38.2,178.2,178.2,0,0,0,2.18-42.91c-.74-12-2.45-24-4.34-35.87-2.31-14.49-4.89-28.91-6.82-43.46l.11.92a189.37,189.37,0,0,1-1.33-23.73l.62-13.18a198.23,198.23,0,0,1,8.46-43.34,255.61,255.61,0,0,1,31.27-66.13,276.59,276.59,0,0,1,51.79-59.16,271.6,271.6,0,0,1,29-21.81l10.28-6.37q10.43-6.14,21.39-11.28,4.9-1.64,9.73-3.46,5.08-1.84,10.08-3.89c7-2.86,13.91-6,20.63-9.52,14.32-7.44,28.28-16.3,40.18-27.26A148.34,148.34,0,0,0,1935,255.8a108.48,108.48,0,0,0,13.6-29.66,85.2,85.2,0,0,0,3.41-14.76,122.52,122.52,0,0,0,1.37-21.69,2.51,2.51,0,0,0-2.76.14q-4.29,1.91-8.39,4.21t-8.09,4.77a2.51,2.51,0,0,0-1.61,2.24,103.66,103.66,0,0,1-3.29,18.76,76.45,76.45,0,0,1-4.41,12.5,77.3,77.3,0,0,1-5.56,11.45,114.26,114.26,0,0,1-9.16,13.59l.61-.74-5.78,6.94.64-.72-6.15,6.57.66-.69c-3.86,3.7-7.72,7.38-11.84,10.8s-8.4,6.6-12.75,9.68a271.56,271.56,0,0,1-30.53,18.4c-9,4.74-18.16,9-27.31,13.38a200.61,200.61,0,0,0-20.47,11.06c-7.08,4.44-14,9.11-20.72,14.12a294.22,294.22,0,0,0-71.74,78.08,289.88,289.88,0,0,0-23.11,44.59c-7.22,17.53-13,36-16,54.71a248.44,248.44,0,0,0-3,25.82,209.87,209.87,0,0,0,.41,27.45c.78,10.38,2.15,20.71,3.49,31,2.1,16.2,4.2,32.39,4.43,48.75a158.39,158.39,0,0,1-5,43.72,137.75,137.75,0,0,1-19.23,41.57,169.28,169.28,0,0,1-26.12,29.67A227.7,227.7,0,0,1,1584.41,798c-13.47,8.07-27.64,14.9-41.77,21.74l.86-.37-8.56,3.57.86-.34-8.88,3.41.87-.31-9.2,3.19.88-.27q-9.08,3-18.38,5.19l.89-.18-10,2.06.9-.13-10.21,1.5.9-.08-10.33.85.9,0-10.35.1.9,0-10.26-.73.89.12-10-1.6.87.19-9.73-2.48.85.27-9.41-3.36.82.35-9.1-4.29.78.41-8.24-5,.74.48-7.43-5.54.7.53a89.27,89.27,0,0,1-11.37-11.24,100.54,100.54,0,0,1-9-12.49,133.72,133.72,0,0,1-12.52-27.41,171,171,0,0,1-7.22-28.9q-1.68-13.06-2.92-26.16-1.71-19.62-2.08-39.32c-.69-45.29,3.05-90.37,7.73-135.38,4.73-45.56,10.49-91.11,12.65-136.89,1.55-32.91,1.35-66-2.2-98.8-4-36.6-12.18-72.86-27.61-106.42q-5.83-12.59-12.64-24.67-3.69-7.18-7.91-14.06a224.8,224.8,0,0,0-13.87-20.15A207.94,207.94,0,0,0,1285,101.75c-14.35-11.79-31.45-22.09-50-25.1a102.94,102.94,0,0,0-13.58-1.36,83.4,83.4,0,0,0-25.93,3.6c-21.19,6.23-39.82,19.53-55.22,35.05-8.63,8.7-16,18.45-23.07,28.46-11.09,15.79-20.23,33-28.48,50.41C1071.06,229.94,1058,269,1042.58,307c-13.72,33.89-29.23,67.24-50.21,97.33A348.29,348.29,0,0,1,909,488.11a385.2,385.2,0,0,1-50.61,30.52q-13.25,6.67-27,12.36t-27.84,10.4l.9-.28-15.1,4.75.9-.25L775,549.82l.91-.22-15.43,3.69.92-.19-15.56,3.16.92-.17-15.67,2.63.92-.14-15.76,2.09.92-.11-15.84,1.55.93-.08-15.89,1,.93,0-15.92.46.92,0-15.94-.09h.92l-15.93-.65.92,0-15.91-1.22.91.07-15.86-1.79.91.11-15.86-2.31.9.13q-13.39-1.93-26.64-4.61l.89.17-11.08-2.4.88.2-11.16-2.77.86.24-11.18-3.19.85.27L529.65,542l.83.31-11-4.2.81.35-10.87-4.78.78.4-10.6-5.41.75.44-10.24-6.07.72.49L481,516.8l.68.54-9.24-7.46.64.58-8.68-8.2.6.62-7.8-8.69.55.66-7-9.15.5.7-6.15-9.55.46.72c-3.31-6.11-6.5-12.18-9.21-18.59a149.58,149.58,0,0,1-7.69-24.6,191.33,191.33,0,0,1-4.88-46.58,268.74,268.74,0,0,1,4.27-43.24,222.27,222.27,0,0,1,6.31-25.7A89.36,89.36,0,0,1,438,308.53a123.06,123.06,0,0,1,6.91-15.93l-.35.74,5.82-10.4-.42.71,6.77-10.08-.48.67,7.94-9.78-.53.63,7.75-7.69-.59.58,8.35-6.85-.64.52,8.88-6-.69.46L496,240.9l-.73.4,9.74-4.37-.76.33,10.08-3.55-.79.27,10.37-2.72-.82.2,10.59-1.88-.83.12,10.75-1-.84.05,10.83-.18-.85,0,10.84.7-.85-.1,10.76,1.59-.84-.18L583.27,233l-.82-.26,10.29,3.37-.8-.33,9.9,4.24,8.66,4.66a103.7,103.7,0,0,1,19.28,14.78,118.54,118.54,0,0,1,22.87,30.19c13.39,25.05,18.55,54.74,13.18,82.73-5.08,26.48-20.18,50.6-40.37,68.24a167.17,167.17,0,0,1-31.1,21.05c-14,7.53-29.11,12.69-44.33,17.18l.91-.23-10.17,2.54.91-.19-10,1.9.92-.15c-16.14,2.2-32.21,4.16-48.52,4.4a292.54,292.54,0,0,1-46.19-3,261.61,261.61,0,0,1-45.26-10.5A233.12,233.12,0,0,1,368,463.92a210.83,210.83,0,0,1-23.17-12.53l.74.49-11.6-7.8.71.53-11-8.53.68.56L314,427.41l.65.59c-6-6.06-11.95-12.09-17.36-18.68a223.35,223.35,0,0,1-14.7-20.21,275.54,275.54,0,0,1-22.67-43.6c-13.16-31.53-21-64.81-27.72-98.22-6.36-31.79-11.8-63.88-21.07-95A267.41,267.41,0,0,0,193.81,108,272.8,272.8,0,0,0,178,80.38c-7.53-11.4-17-21.51-27.16-30.59a151,151,0,0,0-25.17-18.23c-9.52-5.47-19.62-10.1-30.33-12.65a77.23,77.23,0,0,0-22.87-2.25,72.29,72.29,0,0,0-14.62,2.53,46.31,46.31,0,0,0-6.72,2.1,83.75,83.75,0,0,1-11.84,3.52q-1.49.39-.3,1.37a17.89,17.89,0,0,0,6,2.07q5.9,1.47,11.88,2.62A17.89,17.89,0,0,0,63.2,31.53Z"/><path class="cls-1" d="M66.15,44.6a23.7,23.7,0,0,0,12.48-3.76,12.57,12.57,0,0,1,9.27-2.23l-1,0,6.83.31A56.76,56.76,0,0,1,106.55,42a88.31,88.31,0,0,1,18.13,9.23,157.6,157.6,0,0,1,31.57,27.57,162,162,0,0,1,24.51,35.74l3,6.55a172,172,0,0,0,7.38,17,252.23,252.23,0,0,1,13.49,43c10.62,46.42,13.65,94.25,25.13,140.51C243,375,267.44,427.06,309.56,463.76c29.07,25.33,65.55,42.1,103.07,50.29a319.57,319.57,0,0,0,72,7.44,329.85,329.85,0,0,0,42.86-3.32,255.24,255.24,0,0,0,44.81-10.77c40.5-13.54,78.72-37.85,100.43-75.61a128.55,128.55,0,0,0,17.72-65.66,154.36,154.36,0,0,0-19.09-75.4c-12.52-22.67-31.06-42-53.9-54.36-43.69-23.68-100.58-20.44-142.17,6.3a130.92,130.92,0,0,0-40.53,41.77c-13,21.09-20.26,45.15-24.57,69.39-4.09,23-6,46.47-4.18,69.82,2.13,26.79,9.14,53.37,22.51,76.8a153.52,153.52,0,0,0,21.64,29.13c14.24,15.15,32,26.83,50.75,35.67,21.94,10.37,45.51,16.9,69.28,21.44l11.27,2q13.07,2,26.13,4.11a397.89,397.89,0,0,0,47.77,4.09c15.95.3,31.83.14,47.74-1.07s31.54-3.4,47.23-6.06c21.07-3.56,41.8-9.22,62.09-15.85a409.13,409.13,0,0,0,98.35-47.78,376.47,376.47,0,0,0,81.63-72.77,351.27,351.27,0,0,0,27.93-38.6A437.23,437.23,0,0,0,1043.94,371c14-29.48,24.71-60.49,35.73-91.18,12-33.39,23.93-67.07,40.78-98.39a275.48,275.48,0,0,1,22.61-35.74,138.08,138.08,0,0,1,49.48-42.13,95.59,95.59,0,0,1,14.24-5.44A76.8,76.8,0,0,1,1228.92,95c25.22.29,44.62,14.53,62.43,33.67,11.82,12.71,21.87,27.27,30.51,42.29,3.81,6.62,7.34,13.4,10.52,20.34q3.17,6.89,5.84,14,3.12,6.68,6.26,13.34l-.57-1.29,5.57,13.53-.51-1.3,4.84,13.75-.46-1.32q4,12.54,6.91,25.41l2.63,12.95a387.4,387.4,0,0,1,5.58,46.4c2,30.15,1.14,60.22-.65,90.36l.07-1.17-1.12,15,.09-1.15-1.32,15,.11-1.14q-3.34,33-7.14,65.9c-2.93,25.13-6.14,50.22-8.72,75.39-4.65,45.34-7.45,91-4.37,136.59q1.33,20.17,4.26,40.17,1.56,7.6,3.59,15.09a194.61,194.61,0,0,0,7.54,22.84c6.58,16.1,16,31,28.68,43,15,14.24,34.32,23.44,54.65,27.12,25.76,4.67,52.41.88,77.25-6.67a275.55,275.55,0,0,0,37.67-14.76c12.82-6.07,25.56-12.41,37.74-19.69,21.92-13.1,42.4-29,58.91-48.61,17.27-20.47,29.79-44.81,35.1-71.13,3.34-16.53,3.69-33.46,2.38-50.23-1.24-15.93-4.09-31.68-6.82-47.41-1.86-10.74-3.84-21.48-5-32.32a190.58,190.58,0,0,1,6.48-73.1c7.73-27.19,20.72-52.88,37-75.91a279,279,0,0,1,31-36.65q36.65-38.5,84.85-56.38,7.22-2.23,14.25-5c17-6.79,33.27-15.33,47.94-26.29a152.35,152.35,0,0,0,22-19.94c3.17-3.51,6-7,8.88-10.8a110.74,110.74,0,0,0,17-33.55,116.8,116.8,0,0,0,4.45-20.34,125.51,125.51,0,0,0,.82-22.51c0-1.71-2.91-1.17-3.77-1.07-1.32.16-3.35.21-3.41,1.93a115.19,115.19,0,0,1-1.76,21.5l-2.24,9.94a114.83,114.83,0,0,1-10.94,26.34c-6.7,12.24-16.66,23.57-27.13,33a185.23,185.23,0,0,1-19.62,15.24,256.78,256.78,0,0,1-41,22.37c-6.19,2.72-12.53,5-18.8,7.48l-.82.33q-10.85,5.26-21.18,11.51a285.53,285.53,0,0,0-75.52,67.48c-27.82,35.58-47.88,78-53.23,123.11a201.18,201.18,0,0,0-1.2,33c.47,10.31,2.19,20.58,3.76,30.77,2.39,15.49,5.1,30.95,6.64,46.56a219.56,219.56,0,0,1,.51,36.65,142.62,142.62,0,0,1-7,34.87,150.69,150.69,0,0,1-14.09,30.28c-11.13,18.33-26,34.22-42.73,47.59a274.2,274.2,0,0,1-54.23,33.32c-17.52,8.29-35.32,16.14-54.19,20.84-18.65,4.65-37.69,7.1-56.89,5.25a112.11,112.11,0,0,1-29.83-6.89,76.61,76.61,0,0,1-13.2-6,96.64,96.64,0,0,1-14.7-10.09l.61.53-6.86-6.21.58.56a100.51,100.51,0,0,1-10.6-12.28,115.34,115.34,0,0,1-8.38-13.27,137.16,137.16,0,0,1-9.11-21.08,214,214,0,0,1-7-25.68,144.89,144.89,0,0,1-3.19-23.52q-2-19.75-2.58-39.6c-1.39-45.34,2.4-90.67,7.32-135.7,4.21-38.52,8.88-77,12.29-115.59,3.88-44.05,5.52-88.65.89-132.71a359,359,0,0,0-9.82-55.41c-2.47-9.19-4.47-15.65-7.6-24.64-4.63-13.29-10.86-25.83-17.14-38.39l.6,1.28a258.15,258.15,0,0,0-12.62-24.13,238.54,238.54,0,0,0-15.13-22.29,202.6,202.6,0,0,0-29.91-31.62C1269,102.9,1254,93.46,1237.1,90.67c-15.15-2.51-30.77.41-44.74,6.47a128.06,128.06,0,0,0-27.08,16.39,103.39,103.39,0,0,0-9.07,7.62,81.44,81.44,0,0,0-12.06,13,264.66,264.66,0,0,0-27.44,40.68c-15.88,28.46-27.63,58.91-39,89.39-5.55,14.93-11,29.92-16.62,44.82q-5.77,15.22-12.06,30.23Q1018.58,413.06,961.3,472l.56-.51q-8.55,8.34-17.76,15.93-8.7,7.57-18,14.41a373.07,373.07,0,0,1-38.45,25.3,412.81,412.81,0,0,1-41.12,20.74l-14.21,5.9Q818,559.44,803.18,564l.76-.22-15.85,4.56.77-.2-16,4,.77-.18-16.12,3.44.78-.16-16.23,2.89.79-.13-16.31,2.33.8-.11c-13,1.4-26,2.61-39,3.11s-26.09.57-39.1-.15q-15.6-.87-31.13-2.66c-14.17-1.64-28.23-4.34-42.27-6.82l.81.14-11.48-2.32.8.17L554.37,569l.79.21c-7.52-2-15-4-22.45-6.39a242.34,242.34,0,0,1-26.63-10.49,191.27,191.27,0,0,1-20.27-10.9,82.18,82.18,0,0,1-9.54-6.38,116.91,116.91,0,0,1-13.4-10.7l.58.55-8.56-8.36.54.58-7.5-8.58.49.61-6.59-9a112.19,112.19,0,0,1-8.35-14.25,157.92,157.92,0,0,1-8.71-20,194.65,194.65,0,0,1-10.15-47.66c-1.72-18.36-.71-37.13,1.75-55.37,2.28-16.85,5.53-33.39,11.22-49.46a139.51,139.51,0,0,1,25.85-46A122.16,122.16,0,0,1,492.07,238a141.69,141.69,0,0,1,47.11-13.46,131.79,131.79,0,0,1,27.87.12,124,124,0,0,1,27.53,5.61,132.22,132.22,0,0,1,20.59,8.83c26.79,14.6,47.94,40.73,58.73,69.25a143.65,143.65,0,0,1,9.36,47.4,151.62,151.62,0,0,1-1.1,21.48,111.64,111.64,0,0,1-6.64,26,124.37,124.37,0,0,1-12.35,24.84A164,164,0,0,1,650.32,445a140.13,140.13,0,0,1-18.86,17.66,164.18,164.18,0,0,1-21,14.36,215.69,215.69,0,0,1-42.11,18.23,260.51,260.51,0,0,1-49.13,10.43c-9.25,1-18.57,1.59-27.87,1.88-14.08.44-28-.55-42-1.77l.81.11-14.72-2,.81.14-14.6-2.66.8.18L408,498.2l.79.22-14.21-4.08.78.26-13.93-4.8.77.29-13.6-5.53.76.33-13.19-6.27.74.37-12.72-7,.72.4a199.87,199.87,0,0,1-42-33.07,219.88,219.88,0,0,1-27.49-35c-16.53-25.85-28-54.48-36.31-84-7.63-27.13-12.28-55-17.13-82.7-4.73-27-9.25-54.25-17.36-80.48a250,250,0,0,0-15.18-37.63c-4.18-8.4-8.17-16.76-13.38-24.6A165.15,165.15,0,0,0,141.9,57.75c-12.46-10-26.47-18.67-41.89-23.17a65.8,65.8,0,0,0-20.26-2.22A26,26,0,0,0,72,33.59,20.91,20.91,0,0,0,68.16,38l1.37-.7L55.74,38.62a.91.91,0,0,0-.55,1.29,4.62,4.62,0,0,0,2.51,1.87,54.12,54.12,0,0,0,5.38,2.3A4.62,4.62,0,0,0,66.15,44.6Z"/><path class="cls-1" d="M54.45,25.88l5.8-3.69-1.53.48,6.86-2.07a44.06,44.06,0,0,1,10.27-1.35,29.65,29.65,0,0,1,6.74,0,48.46,48.46,0,0,1,9.94,1.31l-4.16-1L99,22.29l-4.06-1.22,10.46,3.46-4-1.47,10.25,4.19-3.82-1.71,10,4.87-3.68-1.95L124,34l-3.53-2.17L130,37.85l-3.37-2.38c6.11,4.37,12.06,8.63,17.73,13.54a168.93,168.93,0,0,1,13.34,12.83,153.32,153.32,0,0,1,20,26.77l1.86,3.18q4.22,8.5,9,16.7c3.43,6.84,6.53,13.85,9.26,21,7.62,20,12.6,40.89,16.92,61.78,7.82,37.78,12.81,76.27,23.42,113.43a376.23,376.23,0,0,0,18.58,51.71c9.49,21,21.39,41.48,36.56,59a224.59,224.59,0,0,0,18.27,18.93,197.44,197.44,0,0,0,26.92,20.45,232.92,232.92,0,0,0,56,25.79,277.39,277.39,0,0,0,68,12.16c9.17.47,18.36.66,27.55.39a288.73,288.73,0,0,0,40.74-3.89c29.58-5.18,58.43-15.34,83.79-31.54A145.4,145.4,0,0,0,651.9,423.5a141.31,141.31,0,0,0,11.34-17.76,119.46,119.46,0,0,0,11.13-30c3.92-16.62,3.9-34.44,1-51.24a139.58,139.58,0,0,0-15.19-43.61,130.37,130.37,0,0,0-28.8-35.79c-14.57-12.73-32.75-21-51.53-25.06a138.15,138.15,0,0,0-47.09-1.75,124.28,124.28,0,0,0-25.13,6.18,116,116,0,0,0-23.31,10.81,126.15,126.15,0,0,0-16.64,12.16A117.67,117.67,0,0,0,450,267.36c-12.17,16.9-20.16,36.69-25.15,56.85-7.85,31.71-11.18,65-6,97.45a175.13,175.13,0,0,0,6.31,26.09,143.84,143.84,0,0,0,10.37,24.86,154.62,154.62,0,0,0,11.71,18.52,141.59,141.59,0,0,0,23.6,24.58c26.75,21.89,60.1,33.71,93.36,41.43l10.66,2.27q13,2.48,26,4.73c10.27,1.57,20.58,2.89,30.92,3.78a449.08,449.08,0,0,0,77.27-.29A398.43,398.43,0,0,0,754.85,561a436.77,436.77,0,0,0,44.64-11.37,433.33,433.33,0,0,0,70.57-29.22c49.62-26.14,93.86-62.84,126.92-108.29,15.76-21.66,28.52-45.21,39.77-69.48,13.48-29.07,24.11-59.4,35.39-89.36,8.91-23.67,18-47.34,29-70.12,5.26-10.85,11-21.4,17.28-31.68a211,211,0,0,1,11.67-17.66,229,229,0,0,1,17.62-21.5l-1.16,1.19a190.85,190.85,0,0,1,18.23-15.52,136.12,136.12,0,0,1,16.77-10.4,92.67,92.67,0,0,1,17.82-7.3l7.36-1.8a77.43,77.43,0,0,1,15-1.49l-4.33-.05,11.86.43-4.29-.33,11.43,1.52-4.22-.63a89.38,89.38,0,0,1,30,11.46,125.54,125.54,0,0,1,12.65,8.13l-3.41-2.28,9.17,6.9-3.23-2.51,8.83,7.44-3-2.71,8.48,7.93-2.84-2.9c5.43,5.59,10.75,11.1,15.75,17.07,4.17,5,8.15,10.12,11.88,15.44s7.27,10.87,10.56,16.51,6.07,11.41,9.06,17.2l6.49,12,5.69,12.2a260,260,0,0,1,11.36,31.47q4.8,16.09,8,32.59c2.67,13.87,4.31,27.86,5.82,41.89l-.15-1.5,1.19,15.22-.09-1.51c.73,14.41,1.27,28.75,1.19,43.18-.08,14-.56,28.11-1.42,42.12-1.82,29.73-4.93,59.38-8.2,89-3.86,35-7.93,69.92-10.54,105-1.44,19.41-2.31,39-2.37,58.42a559.56,559.56,0,0,0,2.59,59.24l2.32,19.91q1,5.42,2.19,10.79a192.88,192.88,0,0,0,6.16,22.08,129.45,129.45,0,0,0,20.63,38.51,72,72,0,0,0,8.67,9.21,70.6,70.6,0,0,0,10.06,8.39,95.57,95.57,0,0,0,25.33,12.75c17.73,5.53,36.14,6.5,54.53,4.34,17.7-2.08,34.95-6.86,51.59-13.17a346.62,346.62,0,0,0,50.22-23.77,238.88,238.88,0,0,0,46.39-34.47,175.43,175.43,0,0,0,20.56-24,114.05,114.05,0,0,0,8.47-13.6,110.25,110.25,0,0,0,7.22-14.55,142,142,0,0,0,9.28-32.38,181.2,181.2,0,0,0,1.88-29.69c-.34-21.09-3.78-41.84-6.78-62.66-1.47-10.16-2.86-20.4-3.41-30.66a150.45,150.45,0,0,1,0-20.33,151.44,151.44,0,0,1,1.77-19.49,230.42,230.42,0,0,1,8.52-36.78l4.06-11.71q4.33-11.54,9.72-22.63l-.76,1.51,6.37-12.43-.81,1.48,6.88-12.13-.86,1.45,7.38-11.81-.9,1.42,7.86-11.48-1,1.38c4.89-6.53,9.76-13,15.05-19.26s10.83-12.18,16.6-17.9a278.17,278.17,0,0,1,42.51-34.5c6.79-4.48,13.74-8.62,20.91-12.46a40.9,40.9,0,0,1,8.56-4.13q3.27-1.25,6.48-2.63a347.65,347.65,0,0,0,32.11-15.07c19.16-10.39,37.55-22.9,52.18-39.22a117.8,117.8,0,0,0,21.2-33.31,107.24,107.24,0,0,0,5.71-18.14,55.63,55.63,0,0,0,1.71-9.87,88,88,0,0,0,1.06-15.67,9.47,9.47,0,0,0-5.82,1.81q-10.08,5-20,10.49t-19.66,11a9.47,9.47,0,0,0-4.68,3.9l-2.09,6.85a58.79,58.79,0,0,1-4.22,9.45,86.23,86.23,0,0,1-9.19,14.25,150.46,150.46,0,0,1-22.65,22.41c-19.53,15.9-41.5,28.42-62.83,41.68A405.55,405.55,0,0,0,1754.61,336a310.62,310.62,0,0,0-43.27,41.77,330.13,330.13,0,0,0-76.65,175.46c-1,8.92-1.64,17.9-2,26.88-.44,12.28.42,24.54,1,36.8,1.22,28.13,3.06,56.81-6,84-8.34,25.12-26.7,45.85-48.09,60.93a228.84,228.84,0,0,1-30.09,17.78c-8.1,4-16.49,7.5-24.9,10.81-8,3.16-16,6.32-24.55,8a148.76,148.76,0,0,1-27.51,3c-10.53.07-21.8-1.63-31.49-5.91a67.91,67.91,0,0,1-22-15.11c-7.5-7.87-12.87-17.62-16.6-27.79a169.62,169.62,0,0,1-6.81-24.63,167.38,167.38,0,0,1-2.92-19.74c-.34-4.19-.38-8.3-.48-12.51l-1.41-19.18-.8-19.21c-.51-16.05-.24-32.12.27-48.17,1.14-35.6,4.12-71.08,7-106.57,2.35-29,4.85-58,6.47-87a648.63,648.63,0,0,0,0-68.81c-2.47-49.09-10.42-98.52-28.72-144.35a315.75,315.75,0,0,0-30.52-58,219.12,219.12,0,0,0-18.76-24.65c-4-4.42-8.11-8.65-12.4-12.76a177.58,177.58,0,0,0-59.83-38,123.89,123.89,0,0,0-40.76-7.7c-18.07-.43-35.93,4.31-52.19,12a132.5,132.5,0,0,0-19.25,11.42,162.46,162.46,0,0,0-17.6,14,237.06,237.06,0,0,0-24.51,26.8c-29.63,37.35-49.27,81-67.82,124.57-18.18,42.71-35.33,86.24-60.61,125.39a319.6,319.6,0,0,1-38.57,49,325.9,325.9,0,0,1-57.69,47.11c-73.43,47.39-164,66.73-250.54,56.55-11.49-1.35-22.89-3.15-34.21-5.51-9.2-1.92-18.76-3.75-27.73-6.45-5.63-1.7-11.21-3.8-16.69-5.94a176.06,176.06,0,0,1-23.85-11.24,148.53,148.53,0,0,1-27.3-19.86,104.71,104.71,0,0,1-25.45-37c-10.07-24.58-11.44-52.46-6.93-78.47a194,194,0,0,1,8.9-34.08,120.45,120.45,0,0,1,10.24-21,108.22,108.22,0,0,1,13.61-18.24,79.34,79.34,0,0,1,11.45-10.37,70.8,70.8,0,0,1,11.41-6.25,79.6,79.6,0,0,1,32.07-6.58c21.9-.1,44.45,8.43,59.34,24.82a87.17,87.17,0,0,1,22.19,54.72,84.22,84.22,0,0,1-3.92,29.68,74.72,74.72,0,0,1-6.51,14.6,113.61,113.61,0,0,1-12.39,17.63c-18.1,20.72-44.49,32.85-70.78,39.3a168.39,168.39,0,0,1-20.13,3.78c-7.75.93-15.28.81-23.06.82l-11.49.25-11.52-.26A251,251,0,0,1,437,448.5a218.55,218.55,0,0,1-27.76-7,198.94,198.94,0,0,1-36.45-15.29,189.91,189.91,0,0,1-44.53-33.59c-29.7-30.58-47.36-70.71-60.1-110.83-13.21-41.59-22.07-84.44-35.86-125.85-7.41-22.26-16.19-44.47-28.11-64.76C194.06,74,182.32,57.49,167.71,43.77A168.49,168.49,0,0,0,129,16.61C115.15,9.52,100,4,84.52,1.75a126.78,126.78,0,0,0-41.27.49A131.52,131.52,0,0,0,23.74,7.66q-5.58,1.91-11.12,3.92A35.51,35.51,0,0,0,.16,17.2a8.87,8.87,0,0,0,5.5,2.09Q16.32,21.37,27.06,23t21.51,3.12A8.87,8.87,0,0,0,54.45,25.88Z"/><path class="cls-1" d="M54.89,31.85,61,28.23l-1.21.41A51.49,51.49,0,0,1,73.35,25.5a43.22,43.22,0,0,1,10.24,0,47,47,0,0,1,10.05,1.55,82.19,82.19,0,0,1,13,4.4l-3-1.42c7.46,3.52,14.69,7,21.53,11.61,4,2.72,7.91,5.58,11.66,8.63a164.15,164.15,0,0,1,26,26.42,160.87,160.87,0,0,1,16,24.95l3.1,6.62a181.08,181.08,0,0,1,10,20.75,276.07,276.07,0,0,1,10.78,32.56c9.21,35,14,70.92,20.75,106.42,3.71,19.49,8,38.95,14,57.88A344,344,0,0,0,261,383,225.58,225.58,0,0,0,298.82,435,203.34,203.34,0,0,0,348,471.79a255.26,255.26,0,0,0,58.79,22.31,268.06,268.06,0,0,0,34.58,6.07A303.92,303.92,0,0,0,541,495.56a239.94,239.94,0,0,0,47.83-16c31.06-14.33,58.88-36.78,74.68-67.61A121.83,121.83,0,0,0,677,361.32a145.81,145.81,0,0,0-5.56-46.23c-9.65-33.38-31.39-63-62.36-79.36-29.94-15.85-66.12-18.65-98.56-9.27a125.8,125.8,0,0,0-42.13,21.32,116.47,116.47,0,0,0-19.22,18.67,141.63,141.63,0,0,0-18.59,30.41c-7.88,17.23-12.89,35.88-16,54.52a278,278,0,0,0-4,45.15c-.12,38.78,10.94,78.24,35.88,108.44A151.73,151.73,0,0,0,487,539.07c16.88,9.89,35.54,17.17,54.37,22.35,16.94,4.66,34.15,7.82,51.46,10.72a438.88,438.88,0,0,0,85.76,6A459,459,0,0,0,755.48,569a397.06,397.06,0,0,0,44.74-11.77,426.85,426.85,0,0,0,43.08-16.39,429.58,429.58,0,0,0,66.64-37.42A354.25,354.25,0,0,0,940.1,480a341.84,341.84,0,0,0,38-37.8c6.67-7.85,13.1-15.9,19.1-24.27a366.56,366.56,0,0,0,25-40.42c14.06-26.25,25.16-54,35.62-81.81,10-26.74,19.44-53.74,30.46-80.11q5.75-13.75,12.16-27.2,6.28-13.09,13.57-25.64A278.43,278.43,0,0,1,1129.48,139l-.74,1,9.29-12.06-.77,1a98,98,0,0,1,15-15.86l6.16-5.22a127.38,127.38,0,0,1,23.38-15.15,95.38,95.38,0,0,1,21.81-8,61.08,61.08,0,0,1,11.3-1.84,74.29,74.29,0,0,1,15.27.32l-3.19-.5,10.43,1.9-3.16-.74,10.16,2.84-3.1-1,9.87,3.71-3-1.22,9.56,4.5-2.95-1.45,9.23,5.23-2.84-1.67,8.9,5.88-2.73-1.88,8.57,6.47-2.6-2.08,8.25,7-2.47-2.27q6.91,6.17,13.2,13,5.22,5.65,10,11.66c4.87,6.07,9.46,12.42,13.71,18.93a234.82,234.82,0,0,1,13.59,23.7q2.65,5.15,4.91,10.48A233,233,0,0,1,1346.22,210c11.93,28.79,18.68,59.74,21.9,90.67q2.12,20.38,2.75,40.87c.57,19,.06,37.95-.7,56.93l.06-1.39-.88,15.36.1-1.39c-2,26.9-4.62,53.72-7.61,80.53-3.52,31.62-7.5,63.21-10.21,94.92-2.76,32.34-4.77,64.92-3.7,97.4.44,13.25,1.22,26.49,2.44,39.69a226.64,226.64,0,0,0,5.46,34.6c6.24,25,16.7,49.28,35.9,67.05a96.94,96.94,0,0,0,41.79,22.66c16.85,4.38,34.29,4.63,51.48,2.29,31.33-4.28,61.08-16.76,88.93-31.32a265.47,265.47,0,0,0,44.52-28.91,201.75,201.75,0,0,0,19.3-17.92,154.3,154.3,0,0,0,29.91-43.89,134.18,134.18,0,0,0,9.07-26.23,179.78,179.78,0,0,0,3.52-23.21,146.22,146.22,0,0,0,.31-17.91q-.06-8.9-1-17.76c-1.66-16.87-4.58-33.57-7-50.34-1.22-8.43-2.34-16.9-2.86-25.41l-.37-13.79a197.45,197.45,0,0,1,2-26.15l-.18,1.21,2.36-13.78-.21,1.21c2.82-12.24,5.85-24.27,10.34-36a281.73,281.73,0,0,1,12.54-28.17,276.85,276.85,0,0,1,37.65-55.85,301.79,301.79,0,0,1,44.63-41.7,243.45,243.45,0,0,1,30.75-19.9l10.83-5.66q4.91-1.79,9.75-3.76a325.8,325.8,0,0,0,35.43-16.5c13-7.11,25.69-15.34,36.69-25.34a136.86,136.86,0,0,0,27-33,81.37,81.37,0,0,0,5.81-12.31,81.39,81.39,0,0,0,4.54-13.37l2.05-9.63a117.85,117.85,0,0,0,1.57-20.8,4.94,4.94,0,0,0-4.15.77q-7,3.11-13.78,6.62t-13.49,7.19a4.94,4.94,0,0,0-3.08,2.89l-1.9,8a86.28,86.28,0,0,1-5.64,14.45,104.72,104.72,0,0,1-7.65,12.77c-7.78,11.31-18.07,20.85-28.79,29.32-22.64,17.89-48.37,30.86-73,45.61a276.55,276.55,0,0,0-49.91,37.6c-15.88,15.27-30.85,31.82-43.09,50.2-9.63,14.46-18.79,29.27-25.94,45.14a335.05,335.05,0,0,0-14,35.23c-2.8,8.73-5.22,17.5-7.34,26.42-2,8.52-3.48,17.24-4.71,25.91s-2,17.67-2.27,26.56a224.75,224.75,0,0,0,.73,27.73c2,32.19,7.2,65-.25,96.87a118.56,118.56,0,0,1-18.9,41.6c-10.44,14.71-23.92,27.18-38.61,37.56a253.78,253.78,0,0,1-40.75,23c-7.6,3.5-15.29,6.82-23.07,9.91a135.64,135.64,0,0,1-19.57,5.93c-12.66,2.94-25.79,4.71-38.81,4-14.65-.78-29-4.87-41.33-12.88-19.31-12.51-29.86-33.52-35.88-55.11a173.62,173.62,0,0,1-6.11-33.83l-.19-6.13q-1.92-19.33-2.55-38.75c-.66-19.34-.41-38.74.35-58.07,1.28-32.28,4.15-64.46,7-96.62q2.57-28.9,5-57.8c1.07-12.61,2.24-25.23,3-37.86a686.81,686.81,0,0,0-.13-80.12,510.43,510.43,0,0,0-10.52-78.91,342.29,342.29,0,0,0-28.12-79.72,253.48,253.48,0,0,0-38-56.44,194.23,194.23,0,0,0-17.75-17.47C1289,96.4,1277.54,88.05,1265,81.8c-12.19-6.07-25-10.69-38.59-12.54a99.36,99.36,0,0,0-48.86,5.56c-16.23,6.26-30.58,15.71-43.62,27.12a189.8,189.8,0,0,0-19.2,19.82c-17.69,20.74-31.78,44.34-43.93,68.66-22.4,44.83-38.32,92.54-59.49,137.93-10.59,22.7-22.46,44.83-36.82,65.38a324.84,324.84,0,0,1-57.19,62.43c-76.38,64.23-179.62,93.67-278.54,86.35A402.8,402.8,0,0,1,596.07,537c-9.69-1.77-19.65-3.47-29.17-5.91a248.3,248.3,0,0,1-44.8-16.21,150.46,150.46,0,0,1-38.68-26.36C470,475.95,460.5,460.17,454.19,443c-5.2-14.15-7.41-29.27-8.14-44.26-.83-17.19,1.28-34.48,4.84-51.27A162.85,162.85,0,0,1,466,304.63a122.46,122.46,0,0,1,12-18.56,99.22,99.22,0,0,1,12.42-13.3,63.35,63.35,0,0,1,9.53-6.68c23.21-14.22,53.54-17.84,79.48-9.38,12.44,4.06,24.3,10.28,33.93,19.25A96.86,96.86,0,0,1,639,314.83c8.51,24.53,8.86,52.11-2.62,75.79a113.82,113.82,0,0,1-24,33.24c-12.29,11.61-27.08,20.42-42.6,27-5.34,2.25-10.8,4.2-16.31,6a163,163,0,0,1-34,7.48c-5.29.52-10.55.65-15.87.87q-12.11.95-24.26.84T455,464.68a251.39,251.39,0,0,1-64.9-15.4,196.84,196.84,0,0,1-60.86-37.15,191.35,191.35,0,0,1-20.54-21.62,234.89,234.89,0,0,1-19.88-29.26c-12-20.53-20.66-42.91-28.09-65.44C245.29,249,237.44,200,222,153.16a331.17,331.17,0,0,0-18-44.8,234.32,234.32,0,0,0-18.86-31.83c-10.4-14.44-22.46-27.89-36.87-38.46a169.37,169.37,0,0,0-35.32-20.33c-14.51-6-30.42-10-46.2-9.69a106.32,106.32,0,0,0-24.3,3.28c-2.49.64-5,1.41-7.41,2.15q-6.18,1.94-12.33,4a34.75,34.75,0,0,0-7.39,3.33,5.45,5.45,0,0,0,3.83,2.31q7.72,2.55,15.57,4.67t15.74,4.06A5.45,5.45,0,0,0,54.89,31.85Z"/><path class="cls-1" d="M63.41,27.41q8.17-2.16,16.15-4.9L78,22.81l8.43-1.32-1.54.22a56.8,56.8,0,0,1,32.74,7.65l-6-2.92,21.73,13a165.88,165.88,0,0,1,41.49,44.9c2.59,4.21,5.07,8.46,7.28,12.89,3,6.08,5.34,12.44,8.14,18.62a227.5,227.5,0,0,1,10.14,26.47c5.65,18.19,9.18,37,12.33,55.77,3.67,21.8,6.7,43.71,10.47,65.49,3,17.52,6.57,34.9,11.27,52A339.18,339.18,0,0,0,256,373.2a238,238,0,0,0,35.69,54.07,207.2,207.2,0,0,0,66.7,50.32,264.94,264.94,0,0,0,68.62,21.72,322.56,322.56,0,0,0,64.55,4.31,298.5,298.5,0,0,0,59-7.55A240,240,0,0,0,609,473.86a174.13,174.13,0,0,0,41.89-31.17,137.61,137.61,0,0,0,20.31-26.37,143.42,143.42,0,0,0,11.84-25.91l1.89-5.56A131.17,131.17,0,0,0,689,363.76a150.47,150.47,0,0,0-.32-33,147.35,147.35,0,0,0-16.34-52,138.48,138.48,0,0,0-34-42c-30.93-25.46-72.63-34.11-111.64-26.88a143.94,143.94,0,0,0-47.11,17.7c-16.81,9.91-30.93,24.39-41.47,40.74-11.28,17.49-18.51,37.37-23.2,57.56-1.43,6.15-2.29,10.92-3.29,16.86a272.18,272.18,0,0,0-4.14,40.48,225.41,225.41,0,0,0,4.65,51.39,168.54,168.54,0,0,0,21,53.31,135,135,0,0,0,18.48,24.27c8.74,8.84,18.1,17.27,28.76,23.78,7,4.26,13.88,8.22,21.2,11.81a227.58,227.58,0,0,0,34.38,13.13c18.46,5.58,37.38,9.06,56.42,12,10.56,1.63,21.05,3.28,31.7,4.37,13.19,1.35,26.39,2,39.64,2.18a451.74,451.74,0,0,0,86.35-7.27C809,561.31,865.84,538.9,915.33,505.18a376.65,376.65,0,0,0,64.82-55.6,362.61,362.61,0,0,0,54.64-78c27.43-52.42,43-109.81,65.56-164.28,11.06-26.68,23.89-53,41.18-76.25l8.59-10.88,9.21-10.24q5.85-5.34,12.16-10.13A136,136,0,0,1,1184.67,91l-1.47.81,8.36-4.52-1.48.74,8.56-3.93-1.5.68a91,91,0,0,1,14.6-4.72,74.75,74.75,0,0,1,30.18-.77l-7.06-1.25,18.36,4.88-7.51-2.89L1260,86l-7.09-3.36,13.54,7-6.65-3.79,12.83,7.92-6.2-4.16,12.12,8.73-5.75-4.48c19.94,16.46,33.15,31.47,46.4,52.91,4.07,6.58,7.91,13.41,11.33,20.35,2.83,5.75,5.46,11.58,7.83,17.54a142.59,142.59,0,0,0,7.08,15.64,186.4,186.4,0,0,1,7.28,18.49,315,315,0,0,1,15.64,70.79c1.45,13.34,2.45,26.74,2.83,40.16.39,14,.24,28-.06,41.95l0-1c-.76,18.76-1.87,37.47-3.62,56.17-2,21.61-4.44,43.21-6.95,64.77-5.16,44.29-11,88.55-13.31,133.12q-1.52,29.44-.79,58.91.59,20,2.64,39.92a161.75,161.75,0,0,0,4.1,27.61c4.22,18.39,10.44,36.68,20.56,52.73,8.23,13,19.11,24.72,32.2,33a113.07,113.07,0,0,0,18.29,9.4,111.31,111.31,0,0,0,21.15,6l10.29,1.37a97.86,97.86,0,0,0,11.15.55,158.62,158.62,0,0,0,22.08-1.43c23.69-3.14,46.61-11.2,68.21-21.19C1579.79,821,1602,809,1622,793.86a211.24,211.24,0,0,0,31.71-29.43,130.86,130.86,0,0,0,10.1-12.89,124.65,124.65,0,0,0,9-13.85,192.39,192.39,0,0,0,9.78-20.28,132.38,132.38,0,0,0,5.57-17.41,161.64,161.64,0,0,0,5-42.54c-.18-16.32-2.46-32.52-5.12-48.59-1.79-10.81-3.86-21.57-5.47-32.41-2.32-15.72-3.48-31.4-2.18-47.29,2.38-28.95,11.45-57.2,24.65-83a279.88,279.88,0,0,1,86.61-99.76q9.87-7,20.33-13t21.46-11.1l-1.48.63c15.58-5.45,30.86-11.14,45.43-18.93,15.61-8.35,30.39-18.56,42.87-31.19,10.57-10.7,19.84-23.34,25.59-37.28a157,157,0,0,0,6-17.68,69.25,69.25,0,0,0,2.22-11,123.85,123.85,0,0,0,1.27-22,2.12,2.12,0,0,0-2.44.18A52.29,52.29,0,0,0,1948,188q-3,1.88-5.92,4a11.14,11.14,0,0,0-3.71,3.32l-1,10.87.12-.87-1.84,10.29.18-.86-2.64,9.71.24-.85a103.07,103.07,0,0,1-6.71,16.12l-4.17,7.32a120.24,120.24,0,0,1-15.1,19.38c-10.93,11.77-24.23,21.3-37.88,29.63-13.25,8.08-27.35,14.52-41.56,20.68q-6.63,2.82-13.14,5.89l-11,6.08a262.54,262.54,0,0,0-36,25.16A289.15,289.15,0,0,0,1680.84,475c-9,24.16-14.52,49.4-15.19,75.23-.64,24.58,4.28,49,7.77,73.19l-.11-.88c1.18,9.56,2.29,19.09,2.73,28.72a101.68,101.68,0,0,1,.2,11.29,131.18,131.18,0,0,1-.89,16.93l.13-.87-1.79,12.18.18-.85-2.64,11.47.23-.84-3.46,11,.28-.82-4.21,10.52.33-.8a144,144,0,0,1-9.66,18.11L1649,747a171.92,171.92,0,0,1-19.86,22.81c-15.68,15.49-34.39,28-53.64,38.52-16.7,9.15-33.76,17.48-51.73,23.82a210.16,210.16,0,0,1-26.65,7.56A127.26,127.26,0,0,1,1483,842.1a138.78,138.78,0,0,1-20.36,1h.77l-10.68-.73.76.08-10.58-1.69.75.15-10.33-2.7.73.23-10-3.73.71.29-9.24-4.56.68.36-8.46-5.29.64.41A124.43,124.43,0,0,1,1395,814.54a95.68,95.68,0,0,1-10.65-12.93,131.6,131.6,0,0,1-13.14-24.81,188.48,188.48,0,0,1-8.2-25.87c-1.17-4.82-2.23-9.73-3-14.63l-2.32-20-1.54-19.87c-.86-13.09-1.09-26.33-1-39.45s.43-26.06,1.16-39c1.25-22.49,3.22-44.92,5.53-67.32,4.54-43.91,10-87.72,13.41-131.73a757.64,757.64,0,0,0,2-89.7c-1.48-36.32-6.24-72.74-17.66-107.36q-3.2-9.69-7-19.12c-3.46-8.48-7.73-16.46-11.62-24.73-4-8.49-8.08-16.87-12.87-24.95a230.65,230.65,0,0,0-33.51-44,144.45,144.45,0,0,0-25-20.77,95.32,95.32,0,0,0-31.78-13.12c-8.39-1.8-17.16-1.7-25.65-.7-8.06,1-16,3.48-23.47,6.48-17.22,6.87-32.52,18.45-45.49,31.53-11,11-20.06,24.06-28.44,37.12-5.18,8.08-9.87,16.62-14.28,25.15-4.5,8.71-8.73,17.66-12.64,26.64-15.37,35.31-27.6,71.86-41.75,107.66-6.82,17.25-14.13,34.29-22.35,50.92-4.68,9.48-9.87,18.84-15.35,27.9-5.22,8.62-10.79,17.18-16.8,25.25a360.09,360.09,0,0,1-34.27,39.78,354.39,354.39,0,0,1-51.63,42.9,412.38,412.38,0,0,1-51.77,30A437.74,437.74,0,0,1,798,547.9a422.47,422.47,0,0,1-66.32,15.34,439.72,439.72,0,0,1-60.66,5,428.61,428.61,0,0,1-68.7-4.6c-15.57-2.33-31.19-4.83-46.52-8.45a276.91,276.91,0,0,1-42.44-13.55,177.78,177.78,0,0,1-20.62-10.2l-9.86-6.15a150,150,0,0,1-18.84-15l.57.5a182.76,182.76,0,0,1-15.24-16.9,143,143,0,0,1-12-18.67,162.94,162.94,0,0,1-16.12-46.19,206.18,206.18,0,0,1-3.6-43.57c.15-7.43.65-14.8,1.48-22.18,1.07-9.5,2.76-18.82,4.57-28.21l-.15.75,2.79-11.6-.2.74,3.48-11.69-.25.72,4.27-11.65-.31.7,5.15-11.49-.37.68L444.2,281l-.43.65,7-10.54-.49.61,8.09-10-.54.57,8.21-8.33-.59.52,8.85-7.4-.64.47,9.41-6.48-.68.42,9.88-5.57-.72.36,10.27-4.67-.75.3,10.6-3.78-.78.24,10.87-2.89-.8.18,11.07-2-.82.11,11.2-1.13-.83,0,11.29-.24-.84,0,11.28.67-.84-.09,11.06,1.58-.83-.16,10.83,2.47-.82-.24L593.26,230l-.8-.32,10.15,4.22-.77-.39,9.69,5.05-.74-.46L620,244l-.7-.53,8.58,6.58-.65-.59,7.9,7.2-.61-.64,7.23,7.77-.56-.69,6.57,8.27-.5-.73,5.91,8.73-.45-.76,5.24,9.15-.39-.79,4.57,9.51-.34-.82,3.89,9.84-.28-.84,3.2,10.11-.22-.85,2.48,10.34-.17-.87,1.75,10.51-.11-.87,1,10.62,0-.88.2,10.65v-.88l-.6,10.59.08-.87-1.44,10.4.14-.86-2.27,9.95.21-.84-3,9.32.28-.81L662.66,400l.34-.79-5,10,.39-.76A94.2,94.2,0,0,1,650.25,421,96.83,96.83,0,0,1,641,432.49a154.48,154.48,0,0,1-17.83,16.34,184.77,184.77,0,0,1-46.3,26.1,239.07,239.07,0,0,1-28,9.29A249.46,249.46,0,0,1,524.35,489a334.85,334.85,0,0,1-33.44,3.3q-10.2.51-20.39.12-10.26-.09-20.47-1.11a295.23,295.23,0,0,1-33.83-5.3,275.13,275.13,0,0,1-32.75-9.37,173.23,173.23,0,0,1-18.87-7.91,164.41,164.41,0,0,1-18.14-9.39,209.8,209.8,0,0,1-27.5-19.6,212.26,212.26,0,0,1-45.67-54.41,317.62,317.62,0,0,1-27.62-62c-13-39.7-19-81.13-26.48-122.1-3.9-21.31-8.31-42.59-15.08-63.19a259.27,259.27,0,0,0-10.84-27.31q-3.44-7-6.81-14a102.36,102.36,0,0,0-5.4-10.23,173.91,173.91,0,0,0-23.75-30.91,170.46,170.46,0,0,0-17.37-15.6,129.27,129.27,0,0,0-19.22-12.72C109.65,21.33,98,17,85.4,15.94a60.86,60.86,0,0,0-14.71.82A73.23,73.23,0,0,0,56.13,20.9l1.51-.3L43.58,23q-1.21.53-.21,1.39a12.15,12.15,0,0,0,5,1.48q4.89.89,9.83,1.47A12.15,12.15,0,0,0,63.41,27.41Z"/><path class="cls-1" d="M53.65,23l6.45-3.54L58.85,20A41.53,41.53,0,0,1,69,17.34a42.85,42.85,0,0,1,10.2-.95l-3.54-.15,10.22.58-3.49-.35,10.07,1.48-3.42-.56a103.47,103.47,0,0,1,19.44,6.19,183.67,183.67,0,0,1,21.35,11.94l-2.75-1.73,8.59,6-2.62-1.89,8.31,6.47-2.47-2,8,6.9-2.33-2.18c5.3,5,10.46,10,15.27,15.49a147.59,147.59,0,0,1,11.46,14.68c2.75,4.09,5.38,8.27,7.73,12.61l3.3,6.54,5.6,10.23a200.53,200.53,0,0,1,11,26.46q4.77,13.64,8.29,27.66c4.82,19.22,8.52,38.69,12.1,58.17,6.61,36,12.78,72.08,24.77,106.74,13.1,37.87,32.63,73.76,61.57,101.87a204.46,204.46,0,0,0,49.53,35.38,250.62,250.62,0,0,0,58.53,20.83A301.67,301.67,0,0,0,539.93,485c29.54-6.21,58.13-17.73,82.62-35.53,28.36-20.61,48.86-52,53.84-86.86,4.43-31.07-2.42-63.89-18.47-90.81A126.1,126.1,0,0,0,627,236.68a117.57,117.57,0,0,0-53.56-23.32,141,141,0,0,0-42.59-.38,130,130,0,0,0-44.4,15.14,117,117,0,0,0-35.59,30.61C439,274.1,431.21,292,425.52,310.41a235.53,235.53,0,0,0-6.29,26.76,266.59,266.59,0,0,0-3.85,27.56,246.72,246.72,0,0,0,.32,43.77c3.62,36.29,18.64,71.83,45.14,97.3C486,530,519.23,543.87,552.57,552.45A494.42,494.42,0,0,0,608,563a424.7,424.7,0,0,0,85.17,3.47,456.92,456.92,0,0,0,76.24-11.17,445.4,445.4,0,0,0,72.74-24.21,403.67,403.67,0,0,0,66.82-36.93,358.45,358.45,0,0,0,63.46-55.12,346.9,346.9,0,0,0,49.83-70.24c12.84-24,23.48-49,33.29-74.4,9.46-24.47,18.2-49.21,27.84-73.61q6.91-17.5,14.79-34.57,4.52-10,9.68-19.73,6.65-12.66,14.4-24.68l-.84,1.24,8.77-12.82-.86,1.22c7.25-9.45,14.35-19,23.34-26.84a166.26,166.26,0,0,1,15.64-12.25,111.71,111.71,0,0,1,16.92-9.8l7.08-3a87.66,87.66,0,0,1,14.56-4.14l-3.61.65,11-1.7-3.6.43,11.08-.76-3.58.21,21.7,2.86-16.47-4.7,23.24,7-15.84-5.89,22.42,8.71-15.13-7a138.72,138.72,0,0,1,42.51,25.12q5.59,4.6,10.75,9.69l-2.32-2.17,7.57,7.69-2.16-2.31c5.92,6.59,11.63,13.11,16.92,20.23a223.75,223.75,0,0,1,13.06,19.53c3.3,5.6,6.4,11.29,9.23,17.15q3.74,7.91,8.1,15.5a198.44,198.44,0,0,1,8.13,18.42,314.5,314.5,0,0,1,18.89,71.19c2,13.52,3.5,27.11,4.31,40.75.85,14.3,1.08,28.58,1.14,42.91v-1.28c-.45,26.21-1.82,52.31-4.31,78.41-2.92,30.61-6.41,61.15-9.77,91.72-3.87,35.18-7.51,70.51-8.42,105.91-.42,16.38-.4,32.73.3,49.1q.46,14.89,2,29.71l2.33,19.92c4.67,26.75,13.59,53.92,31.87,74.56a94.79,94.79,0,0,0,36.74,25.59,112.5,112.5,0,0,0,24.13,6.3A98,98,0,0,0,1464.2,840a107.75,107.75,0,0,0,15.21-.44c32.93-3.14,64.16-15.37,93.4-30.33,32.92-16.83,63.68-39.77,84.17-71a160.42,160.42,0,0,0,12.88-23.85,160.13,160.13,0,0,0,9.42-32.66,183.19,183.19,0,0,0,2-30c-.14-9.93-1-19.79-2.07-29.66-2.05-18.26-5.54-36.33-7.45-54.61a142.08,142.08,0,0,1-.95-16.78,146.32,146.32,0,0,1,.48-20.09l1.45-12.84a220.91,220.91,0,0,1,5-24.71l-.4,1.52,3.88-13.44-.44,1.5c4-11.65,8.2-23.12,13.66-34.2q5.4-10.95,11.6-21.47a285.32,285.32,0,0,1,87.45-91.4q7.53-5.1,15.51-9.49l10.72-5.69q4.86-1.82,9.63-3.83,5-2,10-4.26c22.19-10,43.59-22,62-38a127.34,127.34,0,0,0,29.47-37,103.17,103.17,0,0,0,8.62-21.75l2.18-9.7a118,118,0,0,0,1.8-21,7.46,7.46,0,0,0-5,1.79q-8.49,5-16.75,10.28t-16.41,10.81a7.46,7.46,0,0,0-3.76,3.8l-1.84,7.43a60.92,60.92,0,0,1-4,10.26,90.66,90.66,0,0,1-9,15.42,134.3,134.3,0,0,1-22.59,23.72c-19.92,16.84-42.83,29.59-65.23,42.75a408.87,408.87,0,0,0-34.34,22.26,280.43,280.43,0,0,0-25.36,21.2,290.87,290.87,0,0,0-23,23.71,332.48,332.48,0,0,0-44.83,67.16,314,314,0,0,0-30.93,101.1,277.2,277.2,0,0,0-2.18,33.48c0,10,.58,20,1.22,30.06,1,15.67,2.35,31.33,2.28,47a169.16,169.16,0,0,1-1.65,22.82,116.12,116.12,0,0,1-4.95,22.13,118.46,118.46,0,0,1-18.49,33.9c-18.34,23.59-43.86,40.23-70.69,52.69-12.32,5.72-24.88,11.62-38.08,15-11.88,3.07-24.43,5.35-36.75,5.18a94.59,94.59,0,0,1-28.06-4.36,69,69,0,0,1-32.39-22.32c-12.2-15.57-18.34-34.82-21.94-54-.84-4.48-1.53-9-2.06-13.53l-.56-6.64q-.22-12.73-1.71-25.39c-1.84-32.22-1.33-64.46.46-96.67s4.84-64.51,7.52-96.74q1.6-19.29,3.12-38.59c1-12.63,2.09-25.27,2.74-37.93a676.58,676.58,0,0,0-.42-73.24,536.33,536.33,0,0,0-9-72.5A371.32,371.32,0,0,0,1378,225a309.66,309.66,0,0,0-21.56-51.73c-16.39-30.53-37.22-59.16-65.41-79.84-20.54-15.07-44.24-26.6-69.91-28.86a105.16,105.16,0,0,0-37.63,3.61c-15.59,4.36-30,12.07-42.87,21.78-14.3,10.75-26.48,23.84-37.52,37.85-27.84,35.31-46.32,76.89-63.56,118.09-18.15,43.37-34.79,87.69-59.61,127.83a326.11,326.11,0,0,1-38.36,50.75,330.53,330.53,0,0,1-57.88,49.13c-75.83,50.94-170.77,72-261.25,61.4-9.39-1.1-18.71-2.62-28-4.31a300.81,300.81,0,0,1-33-7.39,230.88,230.88,0,0,1-38.85-15.19c-13.28-6.79-26.21-15.4-36.61-26.18a115,115,0,0,1-24.12-36.45c-10.63-26.07-11.75-55.26-7.28-82.78,4.62-28.4,14.77-56.53,34.64-77.91A68.29,68.29,0,0,1,504.34,272a86.86,86.86,0,0,1,47.77-12.4,99.65,99.65,0,0,1,28.32,5.06,77.57,77.57,0,0,1,19.09,9.48,82.72,82.72,0,0,1,16.07,14,96.37,96.37,0,0,1,22.92,59.39c.4,11.8-1.23,24.18-5.79,35.12a108.55,108.55,0,0,1-20.22,31.88C602.41,425.48,590,434,576.83,440.66a180.55,180.55,0,0,1-43.75,15.2,167.86,167.86,0,0,1-16.66,2.66q-7.85.67-15.73.72l-11.85.56a249.74,249.74,0,0,1-29.77-1A237.8,237.8,0,0,1,418,451.92c-19-5.09-37.41-12.19-54.42-22.1a186.55,186.55,0,0,1-48.89-41.2c-26.77-31.82-42.4-70.89-54.41-110.26-13.3-43.61-21.54-88.66-36.55-131.77A327.38,327.38,0,0,0,201.6,96c-9.73-17.66-21.48-34.48-36-48.53A173.16,173.16,0,0,0,132,22.4a149,149,0,0,0-18.85-9.08A129.8,129.8,0,0,0,85.49,5.22a110.78,110.78,0,0,0-39.91.31A154.39,154.39,0,0,0,26.6,11q-5.26,1.77-10.48,3.63-3.81,1.76-7.49,3.79a6.37,6.37,0,0,0,4.6,1.67Q22.08,21.34,31,22.18t17.83,1.49A6.37,6.37,0,0,0,53.65,23Z"/><path class="cls-1" d="M56.75,37.09A35.76,35.76,0,0,1,70,31.58l-1.33.28,6.94-1.06a57.21,57.21,0,0,1,13.69.45,78.8,78.8,0,0,1,13.28,3.39C113.74,38.58,124.11,44.9,133.48,52,154,67.64,171.54,88.36,182.26,111.9l1.51,3.32A180.46,180.46,0,0,1,193.61,136c2.84,7,5.23,14.24,7.47,21.49,5.68,18.45,9.31,37.52,12.8,56.48,8,43.65,13.61,88.1,28.47,130.14,6.93,19.61,15.18,38.92,26.11,56.67a228.88,228.88,0,0,0,36.61,45.93,198.9,198.9,0,0,0,26.67,21.57,232,232,0,0,0,24.18,14,221.88,221.88,0,0,0,39.36,15.3,296.31,296.31,0,0,0,41.42,8.8,310.92,310.92,0,0,0,69.85,1.44,255.63,255.63,0,0,0,56.54-11.26,228.8,228.8,0,0,0,41.82-18.13,164,164,0,0,0,43.31-35.07,121.17,121.17,0,0,0,17.45-26.34,131.45,131.45,0,0,0,8.14-20.53,133.83,133.83,0,0,0,4-50.85c-3.82-35.85-21-70.43-49.45-93a116.66,116.66,0,0,0-22.16-14,133.81,133.81,0,0,0-19.91-7.47c-16.91-5-35.37-6-52.85-3.9a132,132,0,0,0-49.73,16.45,122.23,122.23,0,0,0-46,47.38,197.72,197.72,0,0,0-18.45,49.2,270.1,270.1,0,0,0-7.39,56.19c-.86,39.06,8.2,79.09,32.1,110.68,24.22,32,61.41,51,99.51,61.34,17,4.61,34.33,7.7,51.73,10.57a435.52,435.52,0,0,0,85.93,5.67c117.47-4,235.78-55.48,309-149.24,18-23.07,32.62-48.43,44.91-75,12.41-26.81,22.59-54.52,32.77-82.23,10.52-28.64,20.93-57.43,34.25-84.92q6.33-13.06,13.59-25.64a276.7,276.7,0,0,1,15.49-23.74,225.35,225.35,0,0,1,17.8-21.5l-.89.88c8-7.22,16.05-14.29,25.26-19.9a116.59,116.59,0,0,1,21.26-10.46,85.32,85.32,0,0,1,22.54-4.88,74.23,74.23,0,0,1,15.37.49,72.76,72.76,0,0,1,14.34,3.7l-3.32-1.34,10.11,4.19-3.25-1.6,9.79,5L1257,96.67l9.45,5.74-3.06-2.08,9.11,6.41-2.94-2.31c4.9,3.92,9.78,7.79,14.4,12a175.07,175.07,0,0,1,13.19,13.81,244.5,244.5,0,0,1,36,55.34l3.12,7,6.15,12a258.77,258.77,0,0,1,12.15,30.94c11.78,36.21,16.3,74.42,17.38,112.36.52,18.44.14,36.9-.71,55.32-1.17,25.3-3.83,50.49-6.3,75.68l.16-1.46c-6.65,60.8-15.11,121.63-16.15,182.87-.28,16.43-.18,32.93.92,49.34l1.58,19.93,2.37,20a194.44,194.44,0,0,0,10,37.23,127.62,127.62,0,0,0,17.63,32.32,96.94,96.94,0,0,0,34.88,28.66,109.67,109.67,0,0,0,45.14,10.56c17.18.46,34.69-2.36,51.16-7.18a292.33,292.33,0,0,0,40.12-15.16,392.25,392.25,0,0,0,42.3-22.3c28.47-17.58,54-41.29,69.9-71a143.06,143.06,0,0,0,10.66-25.17,146.28,146.28,0,0,0,5.62-28.14c1.86-17.72.66-35.51-1.58-53.14-2.29-18.07-6-36-7.77-54.11-.77-7.89-1.2-15.79-1.23-23.72a148.31,148.31,0,0,1,1.29-19.73,156.6,156.6,0,0,1,2.9-19l-.25,1.13,3.13-13.42-.29,1.12,3.8-13.14-.33,1.11q2.75-8.91,6.37-17.5,2.17-5.8,4.88-11.36a292.12,292.12,0,0,1,14.33-27.27,286,286,0,0,1,37.13-48.84A279.09,279.09,0,0,1,1790.24,352q7.59-5.2,15.62-9.68,7.89-4.72,16.19-8.69c5.7-2.28,11.49-4.32,17.17-6.65,24.65-10.13,48.51-23.11,68-41.58A123,123,0,0,0,1933,251.09a106.78,106.78,0,0,0,8.09-21.74l1.95-9.64a119.46,119.46,0,0,0,1.38-20.77,4.8,4.8,0,0,0-4.14.33q-7.12,2.37-14.08,5.15t-13.85,5.74a4.8,4.8,0,0,0-3.27,2.56l-2,8a66.6,66.6,0,0,1-4.24,11,97,97,0,0,1-9.38,16.25,137.75,137.75,0,0,1-23,24.4c-20,17.05-43.06,30-65.73,43-11.44,6.59-22.75,13.27-33.44,21a298.09,298.09,0,0,0-43.32,38.66,314,314,0,0,0-66.12,110.16,306.12,306.12,0,0,0-13.77,57,247.84,247.84,0,0,0-2.36,33.31c-.08,10.24.58,20.46,1.28,30.68.91,13.16,2.08,26.3,2.53,39.48a194.19,194.19,0,0,1-.93,29.57c-1.15,9.62-2.79,19.32-6,28.49a130.76,130.76,0,0,1-16.73,32.24c-8.61,12.22-19.69,22.83-31.49,31.94a222.22,222.22,0,0,1-35.38,22c-7.14,3.62-14.41,6.94-21.76,10.1l-9.34,4a93.59,93.59,0,0,1-17,5.89c-21.86,5.83-45.78,8.84-67.79,2.1-11-3.37-21.87-9.21-30.06-17.34a89.21,89.21,0,0,1-18.29-27,151.8,151.8,0,0,1-10.05-32.31c-.91-4.51-1.75-9.05-2.33-13.61-.55-4.37-.71-8.55-.89-12.91l-1.62-19.36q-1-14.5-1.16-29-.48-24.2.52-48.37c1.38-32.29,4.18-64.48,7.07-96.66,1.45-16.08,2.9-32.17,4.27-48.26,1.35-15.87,3-31.74,3.83-47.65q1.47-29.16.91-58.37c-.93-48.25-7.37-96.69-23-142.47a280.77,280.77,0,0,0-16.8-39.27c-4.4-8.39-9-16.73-14.14-24.71a230.1,230.1,0,0,0-27.1-34.84c-16.37-17.19-35.51-31.4-57.26-41a113,113,0,0,0-38.39-9.19c-19.75-1.26-40,4.35-57.07,14.14-24.22,13.91-44,34.5-59.9,57.29a412.79,412.79,0,0,0-32.86,57c-12,24.76-22.17,50.27-32.62,75.68-17.22,41.85-35,83.92-61.24,121.09-27.22,38.62-63,70.72-103.55,94.78-77.7,46-171.83,63.19-261,50.12-12-1.76-24-4.13-35.85-6.64a219.74,219.74,0,0,1-25.48-7,234.55,234.55,0,0,1-35-14.91,136.45,136.45,0,0,1-36.63-28.21,119.88,119.88,0,0,1-23.09-38.48,129.38,129.38,0,0,1-5.84-21.55,153.45,153.45,0,0,1-2.73-22.49,210.94,210.94,0,0,1,2.5-41.78,192.16,192.16,0,0,1,10.48-40.43c6-15.38,14.49-29.8,26-41.67l3.26-3.35a85.36,85.36,0,0,1,12.87-9.23,100.87,100.87,0,0,1,86-6.25,89,89,0,0,1,35.82,26,98.43,98.43,0,0,1,17.68,31.35,104.46,104.46,0,0,1,5.73,39.65,101.27,101.27,0,0,1-6.42,30.38l-3,6.68q-3.7,7.08-8,13.81a108.76,108.76,0,0,1-16.43,19.23c-22.26,20.21-50.89,32.19-80.17,37.9a139.85,139.85,0,0,1-20.79,2.63l-7.7.22q-12.09.93-24.21.8A280.78,280.78,0,0,1,419.14,459a214.8,214.8,0,0,1-60.94-24.93,188.8,188.8,0,0,1-49.07-42.65c-26.27-32.36-41.74-72-53.24-111.66C243.8,238.08,235.81,195.31,222.42,154c-11-33.9-26.72-67.53-50.84-94.19A163.42,163.42,0,0,0,137,31C124.52,23.2,110.77,16.7,96.43,13.08,83.78,9.88,70.73,8.37,57.7,9.73a107.72,107.72,0,0,0-18.87,3.88q-5.41,1.52-10.74,3.32a61.82,61.82,0,0,0-12.57,4.82,6.08,6.08,0,0,0,3.9,2.73q8,3.38,16.18,6.36T52,36.6A6.08,6.08,0,0,0,56.75,37.09Z"/><path class="cls-1" d="M57.84,21.69q8.34-2.43,16.56-5.22l-1.32.43a48.07,48.07,0,0,1,20.59-.31l-5.93-1.09c23.84,5.33,47,20.21,63.46,38.54l9.56,12.45a97.31,97.31,0,0,1,13.31,18.77,135.63,135.63,0,0,1,7.78,16.33c3.23,8.12,7.14,15.88,10.18,24.09,6.49,17.58,10.58,36,14,54.38,4,21.42,7.06,43,10.64,64.51,2.92,17.55,6.15,35,10.38,52.33a373,373,0,0,0,19.24,57.72c19.2,45.06,51.17,85.93,94.37,110.07a250.28,250.28,0,0,0,67.54,26,311,311,0,0,0,64.53,7.47,320.19,320.19,0,0,0,63.56-5.57,219.11,219.11,0,0,0,29.9-8.13,258,258,0,0,0,29-11.78,183.68,183.68,0,0,0,43.25-28.75c13.23-12,24.81-26.59,32.4-42.83a141.87,141.87,0,0,0,8.24-21.51,107.08,107.08,0,0,0,3.27-16.07,146.7,146.7,0,0,0,1.25-27.66,136.52,136.52,0,0,0-5.4-32.36A165.56,165.56,0,0,0,670.88,283a141.38,141.38,0,0,0-30.45-44.17,125.16,125.16,0,0,0-46.57-28.62,139,139,0,0,0-60.51-6.16,143.65,143.65,0,0,0-47,13.8,123.6,123.6,0,0,0-42.29,34.54c-12.67,16.07-21.42,34.93-27.4,54.42a252.76,252.76,0,0,0-6.77,28.35,268.74,268.74,0,0,0-4.71,40.62c-.85,28.45,2.72,56.94,13.48,83.42a149.94,149.94,0,0,0,13,25.42c2.29,3.52,4.59,7.06,7.22,10.34,4.88,6.09,9.89,12.43,15.77,17.61,3.09,2.72,6.36,5.9,9.65,8.39a195.37,195.37,0,0,0,21.08,14.3c17.88,10.32,37.58,17.72,57.52,22.86,17.49,4.5,35.22,7.39,53,10.18a442.28,442.28,0,0,0,87.19,5c119-5,238.52-58.06,311.89-153.79,18.06-23.56,32.66-49.43,44.9-76.44,12.33-27.21,22.38-55.32,32.49-83.4,10.36-28.78,20.66-57.72,34-85.29q6.31-13,13.58-25.54a265.49,265.49,0,0,1,15.52-23.53,216.66,216.66,0,0,1,17.85-21.18l-1.32,1.2,7.27-6.4-1.34,1.14,7.61-6.13-1.35,1.07c6.48-4.65,13-9.24,20.19-12.76l7.14-3.3a87.1,87.1,0,0,1,30-6.78l-6.7.31,19.56.75-7.21-1,14.6,2.71L1235,73.45l13.94,4-6.38-2,53.19,39.45,4.78,6a154.46,154.46,0,0,1,9.34,13.35q3.61,5.07,6.7,10.46a239,239,0,0,1,15.57,30.61l2.78,7,5.66,12c3.54,8,6.74,16.15,9.47,24.44a293.34,293.34,0,0,1,8.34,31.53c2.33,11.07,4,22.16,5.49,33.38l-.13-1,1.47,14.2-.08-1c1.33,18.26,2.23,36.48,2,54.79q-.22,20.56-1.43,41.08c-1,16.09-2.37,32.14-4.05,48.17-2.2,20.85-4.43,41.69-6.83,62.51-5.13,44.47-10.66,89-11.78,133.84-.49,19.76-.43,39.53.8,59.27,1,15.8,2.23,31.76,5.38,47.29,3.73,18.41,9.85,36.82,19.52,53,9.58,16,23.31,30.24,39.9,39.09a111.12,111.12,0,0,0,31.72,11.34c16.34,3.1,33.07,2.6,49.42-.1,21.81-3.6,42.72-11.07,62.69-20.4,22.59-10.55,44.8-22.68,64.61-37.91s38.13-34.09,50.29-56.2a159.15,159.15,0,0,0,13.29-31.07,151.5,151.5,0,0,0,5-23.54c2.71-20.57,1-41.39-2-61.82-3.79-25.86-10.25-51.57-10-77.87.29-29.41,7.88-58.59,19.92-85.3A265.72,265.72,0,0,1,1711,419.77q6.5-10.32,13.87-20T1740.4,381l-1.26,1.36,9.62-10.2-1.28,1.29,10-9.77-1.3,1.22,10.38-9.31-1.31,1.15q9.25-8,19.17-15.06t20.44-13.26q10.53-6.16,21.6-11.3,6.61-2.29,13.17-4.72c17.34-6.49,34.2-14.37,49.62-24.67,18.93-12.64,35.76-28.91,46.61-49.1a108.38,108.38,0,0,0,12.19-36.87,166.74,166.74,0,0,0,1.23-22.7,2.29,2.29,0,0,0-2.54.51,60.44,60.44,0,0,0-4.95,3.62q-3,2.32-5.94,4.83a12.78,12.78,0,0,0-3.68,3.89l-.52,10.46.06-.89A96.63,96.63,0,0,1,1922.3,235a114.13,114.13,0,0,1-13.21,20.53c-11.77,14.52-26.93,26.31-42.93,35.82a334.64,334.64,0,0,1-40.93,20.2q-6.87,2.85-13.62,6-11.41,5.86-22.21,12.77c-4,2.65-8.05,5.3-12,8.11A296.54,296.54,0,0,0,1686.2,445c-13.6,26.9-23.18,56.18-26.72,86.17a198.81,198.81,0,0,0-.64,40.39c1.16,13.6,3.5,27.06,5.72,40.52l-.16-1c1.72,10.83,3.26,21.58,4.49,32.47l-.07-.93.84,11.68,0-.92.22,11.72,0-.9-.5,11.74.06-.89-1.34,11.8.11-.88-2,10.32a98,98,0,0,1-4.56,14.71,136.18,136.18,0,0,1-10.77,22.69,164,164,0,0,1-28.18,34.67,229.48,229.48,0,0,1-35.92,27.67c-7.28,4.59-14.79,8.74-22.38,12.78-8.61,4.58-17.27,9-26.22,12.88A235.42,235.42,0,0,1,1499.75,835a159.07,159.07,0,0,1-24.22,3.94c-22.14,1.86-44.36-.81-64.36-13.95a105.66,105.66,0,0,1-15.06-11.68,100.41,100.41,0,0,1-14.23-17.13c-8.15-12.19-13.74-26-17.59-40.12-1.36-5-2.63-10-3.64-15.07-1.58-7.95-2.32-15.94-3.16-24a649,649,0,0,1-2.67-88.81c2.13-63.43,11.14-126.38,16.52-189.56,3.52-41.37,5-82.9,2.25-124.36-2.65-39.66-10-79.33-25.19-116.18l-5.51-12.18q-4.84-9.44-9.18-19.12c-2.29-4.68-4.68-9.31-7.25-13.84a253.43,253.43,0,0,0-19.81-29.83c-9.81-12.74-20.78-24.76-33.5-34.67-10.07-7.84-21.52-14.31-34.07-17.12a88.12,88.12,0,0,0-47.26,2.23c-19.46,6.58-36.89,18.25-51.63,32.46a183.89,183.89,0,0,0-19.54,22.83,277,277,0,0,0-19.74,30.25c-12.07,21.57-22,44.19-31,67.19-16.94,43.21-31,87.53-51.19,129.42a351.53,351.53,0,0,1-40.09,64.66,358.21,358.21,0,0,1-51.79,52.9,336.43,336.43,0,0,1-36,26.25,394.69,394.69,0,0,1-39,22A430.74,430.74,0,0,1,615,562.37c-10.28-1.16-20.44-2.84-30.64-4.53-10.66-1.77-21.25-3.75-31.76-6.24a239.48,239.48,0,0,1-32.77-10.06c-11.08-4.38-22-9.32-32.1-15.77a164.14,164.14,0,0,1-19.57-14.43,135.39,135.39,0,0,1-23.37-26.54,141.36,141.36,0,0,1-12.9-24.39,114.81,114.81,0,0,1-5.54-15.31,175.3,175.3,0,0,1-5-21.8l.15.78-1.52-11.48.09.8-.86-11.57,0,.81L419.12,391v.81l.38-11.69-.07.82c.79-9.49,1.74-18.78,3.38-28.15a226,226,0,0,1,6.3-27c5.32-17.42,13-34.26,23.76-49a115.15,115.15,0,0,1,18.51-20.18,104.28,104.28,0,0,1,19.73-13.36A123.38,123.38,0,0,1,535.59,230a152.93,152.93,0,0,1,18.66-.53A93.48,93.48,0,0,1,568.18,231a91.08,91.08,0,0,1,13.66,2.88A115.16,115.16,0,0,1,618.65,252a116.48,116.48,0,0,1,29.76,33.16,129.51,129.51,0,0,1,10,20.14l3,8.58a132.31,132.31,0,0,1,4.22,17.81l-.13-.92,1.31,10.06-.08-.91L667.3,350l0-.9-.15,10.15,0-.89a102.7,102.7,0,0,1-2.51,18l-2.3,8.36A113.84,113.84,0,0,1,647,416c-10.95,16-25.36,29-41.73,39.31a190.07,190.07,0,0,1-30.2,15.53,241.2,241.2,0,0,1-28,9.61,235.68,235.68,0,0,1-31.43,6.15,306.32,306.32,0,0,1-40.73,2.7c-27.72-.23-55.39-3.79-81.92-12s-51.75-20.89-73.24-38.49c-20.41-16.72-36.8-37.41-50.15-60.07a288.45,288.45,0,0,1-16.55-33.66A365.42,365.42,0,0,1,239,304.85c-12.75-43.44-18.37-88.45-28.35-132.53-5.09-22.48-11.31-44.55-21.17-65.45-3.78-8-7.44-16.15-11.86-23.81a160.23,160.23,0,0,0-12.92-19c-13.87-17.6-31.26-33-51.18-43.36A91.29,91.29,0,0,0,92.33,13a62,62,0,0,0-21.1-1.28,45.37,45.37,0,0,0-11,2.14Q56.54,15,53,16.44l1.3-.44L41.16,18.89c-.5.11-2,.29-2.09,1.08l.47.73a6.71,6.71,0,0,0,3.06.78c2.75.36,5.53.51,8.3.61A21,21,0,0,0,57.84,21.69Z"/><path class="cls-1" d="M55.77,31.08a24.5,24.5,0,0,1,12.74-5.82l-1.64.31a58.29,58.29,0,0,1,13.81-1.41,65.11,65.11,0,0,1,13.47,1.7,96.12,96.12,0,0,1,25.64,10.33A158,158,0,0,1,159.35,68.5a149.08,149.08,0,0,1,17.73,23.9l3.61,6.42q4,8.55,8.75,16.75c14.11,28.18,20.67,59.36,26.81,90l-.32-1.63c3.43,18.36,6.61,36.76,10.09,55.11,3.33,17.58,6.91,35.16,11.83,52.37a365.93,365.93,0,0,0,16.07,46.12c3.34,7.63,6.86,15.19,10.79,22.53a232.2,232.2,0,0,0,20.48,32.21,215.52,215.52,0,0,0,37,37.94c14.47,11.4,30.56,20.46,47.36,27.92,19.07,8.47,39.59,14,60.12,17.49a303.89,303.89,0,0,0,69.16,3.68c9.14-.54,18.2-1.47,27.25-2.8,7.2-1.06,14.25-2.52,21.33-4.24a228.07,228.07,0,0,0,42.73-14.62,197.87,197.87,0,0,0,34.5-20.43A152.13,152.13,0,0,0,639.85,444,129,129,0,0,0,659,419.89a138.42,138.42,0,0,0,9.65-19,113.07,113.07,0,0,0,6.09-20.15c3.22-14.86,3.18-30.53,1-45.52-4.36-30.08-18.28-58.64-40.67-79.38a108.63,108.63,0,0,0-20.37-15.26A117.35,117.35,0,0,0,596,231.78a140.71,140.71,0,0,0-40.71-7.62,135.19,135.19,0,0,0-40.73,5.09,122.61,122.61,0,0,0-45,23.64c-12.83,10.48-22.78,24.48-30.26,39.12a195.88,195.88,0,0,0-16.66,47.68,263.79,263.79,0,0,0-6.2,43.92c-.81,18.16,0,36.64,4,54.42A174.7,174.7,0,0,0,435.18,479c6.85,13.39,16.31,25.39,27,35.92,12.54,12.38,28,21.95,43.79,29.5,17.36,8.28,35.64,14.13,54.35,18.52q10.69,2.51,21.49,4.45c12.09,2.18,24.16,4.41,36.38,5.78a432,432,0,0,0,62.09,2.8,479.83,479.83,0,0,0,61.5-6A437.14,437.14,0,0,0,816,550.57a401.33,401.33,0,0,0,69.19-32.14c8.77-5.12,17.3-10.63,25.68-16.37q9.43-6.45,18.31-13.64,9.07-6.95,17.55-14.62c18.88-17.11,36.44-35.93,51.16-56.77a408.84,408.84,0,0,0,39.21-69.42c20.29-45.47,34.92-93.17,54.67-138.85,9.62-22.25,20.52-43.89,34.26-63.89l4-5.82a229.29,229.29,0,0,1,17.74-21.58A209.83,209.83,0,0,1,1166.38,102l-1.35.94,8-5.44-1.38.89,8.27-4.94-1.42.83a107.82,107.82,0,0,1,14.27-6.67,67.16,67.16,0,0,1,11.12-3.35,62.16,62.16,0,0,1,11.33-2,75.53,75.53,0,0,1,15.31.11l-4.46-.77,11.74,2-4.41-1.07,11.44,3-4.32-1.38,11.12,4-4.21-1.69,10.78,4.83-4.08-2L1264.57,95l-3.93-2.27L1270.7,99l-3.77-2.55,9.7,7-3.59-2.8,9.33,7.58-3.39-3a250.35,250.35,0,0,1,19.58,19.08q6.44,7.25,12.29,15a224.83,224.83,0,0,1,22.66,36.46l3.3,7a171.94,171.94,0,0,1,9.16,18.1,288.15,288.15,0,0,1,12,31.11,298.88,298.88,0,0,1,9.59,38.87c2.5,13.88,4.14,27.82,5.59,41.85L1373,311l1.13,15.3-.1-1.65.73,15.4,0-1.65c.38,16.79.47,33.52-.14,50.31q-.89,24.51-3.09,49c-3.26,36.1-7.52,72.08-11.35,108.11-4.78,45-8.91,90.39-7.47,135.67l.84,19.78q1.17,20,3.87,39.84c1.29,7.38,2.93,14.81,4.93,22,4.63,16.7,11.44,32.83,21.91,46.74a96.18,96.18,0,0,0,47.53,34c21.11,6.77,43.93,6.22,65.48,2.11,20.27-3.87,39.54-11,58.3-19.4,41.48-18.66,81.76-45,105.4-85A144.73,144.73,0,0,0,1674.22,712a152.74,152.74,0,0,0,6.34-33.67c1.14-13.59.08-27.37-1.43-40.88-1.45-13-3.6-25.79-5.46-38.69-1.45-10.11-2.87-20.23-3.44-30.43a203.71,203.71,0,0,1,1.78-39.88,244.14,244.14,0,0,1,28.05-82.57A295.57,295.57,0,0,1,1743.32,386a301.15,301.15,0,0,1,26.94-25.2q9.5-7.8,19.67-14.72t20.9-12.87l-1.45.77,12.33-6.46-1.49.71c28.25-10.92,56-23.71,79.33-43.45a157,157,0,0,0,15-14.55,110.09,110.09,0,0,0,15-21.07,106.63,106.63,0,0,0,10.16-25.54l2-9.54a115.77,115.77,0,0,0,1.4-20.53,9,9,0,0,0-5.82,1.21q-10.22,4-20.27,8.42t-20,9a9,9,0,0,0-4.87,3.4l-2.08,6.8a58.61,58.61,0,0,1-4.17,9.38,85.69,85.69,0,0,1-9.1,14.15,150.2,150.2,0,0,1-19.62,20c-20,17.18-43.3,30.1-65.52,44-9.07,5.69-18,11.53-26.77,17.75a288.09,288.09,0,0,0-26,21.15,293.81,293.81,0,0,0-23.66,23.73,333.48,333.48,0,0,0-64.28,109.12c-13.49,38.15-20.19,78.83-18.48,119.3.62,14.62,1.43,29.28,1.52,43.91s-.51,29.26-3.65,43.56a107.84,107.84,0,0,1-14,34.58,129.48,129.48,0,0,1-24,27.85,182.12,182.12,0,0,1-31.49,22.06,295,295,0,0,1-45.33,20.37l-4.53,1.55a52.88,52.88,0,0,1-11.18,3c-4.5.92-9,1.65-13.61,2.21-10.85,1.35-22.57,1.44-33.28-1a71.26,71.26,0,0,1-22.23-9,66.26,66.26,0,0,1-20.55-21c-5.37-8.52-9-18.48-11.65-28.16A209.26,209.26,0,0,1,1393.3,715a126.5,126.5,0,0,1-1.22-16.18l0-3q-1.71-19.17-2.2-38.41c-.72-32.21.59-64.39,2.77-96.52,2-29.16,4.61-58.27,6.86-87.4,2.12-27.35,4.76-54.76,5-82.2.38-47-2.85-94.12-14-139.88-10.38-42.65-27.83-83.82-54.37-119a204.58,204.58,0,0,0-29.21-31.44,187.92,187.92,0,0,0-37-25.1c-23.13-11.94-50-17.57-75.86-13.56-29.71,4.61-56.49,21.36-77.3,42.57-25.74,26.23-45.41,58.23-61.51,91.07-20.64,42.11-36.76,86.23-57.07,128.49-9.39,19.52-19.59,38.85-31.85,56.75A342.53,342.53,0,0,1,931.76,424a296.37,296.37,0,0,1-24.83,23,311.39,311.39,0,0,1-27,20.39,367.64,367.64,0,0,1-59.81,32.38,389.33,389.33,0,0,1-182.22,29.36c-11.49-.91-22.94-2.22-34.3-4.23l-13.63-2.56q-13.95-2.85-27.73-6.39c-23.36-7.26-46.38-17.67-64.91-33.91a108.71,108.71,0,0,1-23.56-28.66c-6.68-12-10.67-25.21-12.93-38.7a137.46,137.46,0,0,1-1.68-21,159.12,159.12,0,0,1,1.06-21.48,211,211,0,0,1,7.2-34.44A127,127,0,0,1,475,318.49a109.87,109.87,0,0,1,19.34-28.65c5-5.31,10.68-10.31,17.21-13.68A83.84,83.84,0,0,1,536.49,268a88.81,88.81,0,0,1,33.17,1.58A86.56,86.56,0,0,1,593.77,280a75.43,75.43,0,0,1,24.56,25.89,88.59,88.59,0,0,1,10.83,57.76,77.26,77.26,0,0,1-9.39,27.06,105.36,105.36,0,0,1-22.89,28c-9.81,8.32-21.07,14.68-32.82,19.84a170.76,170.76,0,0,1-42.83,12.07,131.66,131.66,0,0,1-19.54,1.57l-7.35-.08q-11.48.53-23,0a251.6,251.6,0,0,1-56.63-9,214,214,0,0,1-51.67-22.48,178.4,178.4,0,0,1-46.2-40.8c-25.68-31.77-40.85-70.65-52.42-109.44-11.94-40-20.77-80.95-34.29-120.51-7.6-22.25-17.07-44-29.29-64.08C190.17,68.15,177.33,51.35,161.42,38c-22-18.38-48.46-32-76.93-36.52A124.25,124.25,0,0,0,43,2a135.11,135.11,0,0,0-19.6,5.38q-5.54,1.87-11.06,3.8A33,33,0,0,0,0,16.64a9.63,9.63,0,0,0,5.54,2.67q10.92,3.22,22,6t22.12,5.4A9.63,9.63,0,0,0,55.77,31.08Z"/><path class="cls-1" d="M54.72,26a46.83,46.83,0,0,1,10.5-4.34A36.26,36.26,0,0,1,75.4,19.53l-2.29.09,9.1-.33-2.27,0,9,.65-2.24-.18a51.42,51.42,0,0,1,9.91,2.18,60,60,0,0,1,9.68,3.42,119.16,119.16,0,0,1,15.44,8.28,139.51,139.51,0,0,1,14.59,10.51,237.33,237.33,0,0,1,17.57,16.53l-1.46-1.49,6.33,7.07-1.37-1.57,6,7.36-1.27-1.65L167.75,78l-1.18-1.72,5.25,7.89-1.08-1.79,4.82,8.12-1-1.85L178.95,97l-.87-1.91,3.86,8.52a148.83,148.83,0,0,1,7.45,15.55,228.57,228.57,0,0,1,9.66,26.67,513.78,513.78,0,0,1,11.58,50.65c6.2,33.59,10.81,67.56,19.21,100.7,9.64,38,23.95,75.17,47,107.2a211.16,211.16,0,0,0,41.28,43.38c20.31,15.85,43.61,27.44,68,35.49,40.26,13.27,83.27,16.81,125.32,12.25a250,250,0,0,0,30.28-4.89c6.62-1.55,13.17-3.25,19.66-5.29A217.74,217.74,0,0,0,612.45,462a157.14,157.14,0,0,0,35.28-29.89,133,133,0,0,0,24.52-42.08,121.38,121.38,0,0,0,6.21-25.76,146.28,146.28,0,0,0,1-21.29A135,135,0,0,0,676,316.5a145.14,145.14,0,0,0-10.21-30.2,135.69,135.69,0,0,0-27-38.9,122.16,122.16,0,0,0-20.9-16.61,113,113,0,0,0-24.42-12,145.67,145.67,0,0,0-43-7.53,131.39,131.39,0,0,0-27,2.36,134.27,134.27,0,0,0-30.68,9.41,124.67,124.67,0,0,0-23.15,13.22,129.14,129.14,0,0,0-16.18,14.23,120.43,120.43,0,0,0-17.25,23.34,157.26,157.26,0,0,0-12.76,26.91,272.54,272.54,0,0,0-14.36,72.65,216.23,216.23,0,0,0,.85,39.09,199.38,199.38,0,0,0,10,43,147.17,147.17,0,0,0,12,25.14,135.59,135.59,0,0,0,16.73,23.14A160.24,160.24,0,0,0,466,520.15a168.31,168.31,0,0,0,25.17,16.59c19.07,10.43,39.8,17.74,60.93,22.74,16.1,3.82,32.42,6.61,48.77,9.09a432.15,432.15,0,0,0,78.28,4.55,445.88,445.88,0,0,0,69.63-7.78,426.34,426.34,0,0,0,81.65-23.88,424.51,424.51,0,0,0,68.38-35.22,375.64,375.64,0,0,0,65.56-53.29,342,342,0,0,0,52-67.91c13.73-23.78,24.9-48.76,35-74.25,10.69-26.88,20-54.3,30.34-81.29,4.47-11.62,9.06-23.22,14.19-34.57,6-13.28,12.29-26.49,19.75-39,4.81-8.09,9.84-16.05,15.4-23.65a223.46,223.46,0,0,1,17.68-21.37l5.87-5.3a143.54,143.54,0,0,1,15.89-12.06,95.8,95.8,0,0,1,10.15-6.1,103.79,103.79,0,0,1,14.22-6.26l-2.27.73,9.61-3-2.28.6,9.73-2.16-2.29.47a57.37,57.37,0,0,1,11.32-1.1,61.74,61.74,0,0,1,25.59,3.89L1234.11,77,1251,83.34,1241.3,79l16.18,7.6-9.2-5c17.53,10,30.81,19.19,43.52,33.13,5.64,6.19,10.79,12.7,15.9,19.33l-1.25-1.65,5.68,8-1.15-1.72c4.66,7.08,9.19,14.17,13.3,21.58,4.84,8.71,8.62,17.9,13.09,26.78,12,23.86,19.91,49.25,24.86,75.46,5.45,28.82,7.59,58.28,7.62,87.6,0,27.84-1.45,55.67-4.09,83.38-3.43,36-7.79,71.81-11.69,107.72-4.21,38.85-7.78,77.84-7.88,117q-.07,29.77,2.69,59.4a177.57,177.57,0,0,0,3.79,27.1l1.66,7.46c4,16.74,10.25,33.24,19.61,47.71a100.58,100.58,0,0,0,39.27,35.7c20.36,10.29,43.85,13.37,66.43,10.88a217.27,217.27,0,0,0,58.89-15.55,377.41,377.41,0,0,0,55.55-28.14c18.08-11.26,35-24.63,49.21-40.59a177.3,177.3,0,0,0,19.06-26A149.53,149.53,0,0,0,1676,705.78c7.62-22.92,7.86-47.36,5.68-71.16-1.24-13.49-3.6-26.87-5.77-40.23-2-12.1-3.62-24.16-4.71-36.36l0,1.14-.43-14.91,0,1.15a194.68,194.68,0,0,1,2-26.06l2.19-12.51a229.74,229.74,0,0,1,10.5-35.76A248.44,248.44,0,0,1,1701,437.77,281,281,0,0,1,1720.8,407a284.15,284.15,0,0,1,50.38-52.62A270.88,270.88,0,0,1,1801,333.48q7.77-4.77,15.95-8.8a53.81,53.81,0,0,1,11.79-5.12c14-5.35,27.93-11.3,41-18.77,12-6.88,23.88-14.62,34.05-24.09a157.08,157.08,0,0,0,11.95-11.94,131.13,131.13,0,0,0,12.93-17.54,110.14,110.14,0,0,0,11.4-25.31,83.62,83.62,0,0,0,3.5-14.49,119.59,119.59,0,0,0,1.55-21.31,3.62,3.62,0,0,0-3.39.86q-5.34,3.17-10.44,6.72t-10.08,7.24a3.62,3.62,0,0,0-2,2.84,68.79,68.79,0,0,1-2.34,12.86,67.34,67.34,0,0,1-3.74,11.86l-3.3,7.28a101.72,101.72,0,0,1-8.11,13.35l.63-.84-5.35,7,.67-.81-5.77,6.63.7-.77c-3.63,3.72-7.25,7.41-11.16,10.85a191.64,191.64,0,0,1-15.5,12.16,295.87,295.87,0,0,1-27,16.92c-10.28,5.76-20.85,11-31.33,16.36-4.44,2.29-8.88,4.6-13.21,7.08a250.57,250.57,0,0,0-21.58,14.12A300.7,300.7,0,0,0,1697.61,417c-21.34,32.61-36.62,69.24-43.53,107.65a238.18,238.18,0,0,0-3.94,46.83c.13,6.45.74,13,1.29,19.4.7,8.16,1.68,16.28,2.64,24.41,3.37,28.56,6.42,57.75-1.73,85.83-7.58,26.11-23.95,48.53-44.32,66.26-22.66,19.72-49.66,33-76.79,45.41l.92-.36-8.47,3.18.93-.32-8.78,3,.94-.28a221.48,221.48,0,0,1-26.06,6.53,128.43,128.43,0,0,1-26.55,1.92,91,91,0,0,1-44.52-13.19,84.43,84.43,0,0,1-28.65-30.1c-7.87-13.6-12.61-28.78-15.85-44.08a150,150,0,0,1-2.85-17.68l-.38-6.25q-2.1-19.54-2.85-39.17c-1.54-38.81.54-77.69,3.78-116.36,2.64-31.57,5.8-63.1,8.69-94.64,1.57-17.17,3.19-34.32,4-51.55.83-16.67,1.19-33.34,1-50a565.08,565.08,0,0,0-5.81-77.68c-4.11-27.31-10.52-54.66-21-80.29a336.59,336.59,0,0,0-29.37-56.16,215.07,215.07,0,0,0-37-43.56c-16-14.26-34.16-26.32-54.9-32.31a88.77,88.77,0,0,0-23.69-3.42c-19.8-.16-38.88,6.62-55.55,17-35.46,22.08-59.47,58.56-78,95.1-27.6,54.43-44.25,113.62-71.39,168.26-11.14,22.43-24.13,44-39.61,63.74a337.87,337.87,0,0,1-61.82,60.52C862,509.73,807.14,533.32,750.13,545A420.33,420.33,0,0,1,677,553.34a411.93,411.93,0,0,1-44.33-1.22c-14.85-1.22-29.56-3.38-44.23-6a330.18,330.18,0,0,1-35.07-7.79c-6.62-1.92-13.21-4-19.68-6.38-22.79-8.45-44.42-20.6-61.42-38.2a126.6,126.6,0,0,1-26.71-41.94c-7.1-18.2-10.25-37.79-10.46-57.27a230.4,230.4,0,0,1,5.42-49.94c4.68-22.22,13.49-44.07,27.26-62.24a96.24,96.24,0,0,1,20-20.19,99.66,99.66,0,0,1,22.13-12,110.86,110.86,0,0,1,58.22-5.86,101.55,101.55,0,0,1,45.88,20c15.33,12.06,26.77,28.7,33.53,46.92a114.9,114.9,0,0,1,6.87,50.09A95,95,0,0,1,649,385.56a111.88,111.88,0,0,1-17.1,31.12,138.48,138.48,0,0,1-41,34.32A185.9,185.9,0,0,1,566,462.49a236.52,236.52,0,0,1-35.54,10l1-.15-9.68,1.41,1-.09c-7.27.7-14.54,1.51-21.83,2.11a270,270,0,0,1-32,.54,266.66,266.66,0,0,1-57.4-8.21,239.18,239.18,0,0,1-48-18.28,188.2,188.2,0,0,1-26.88-16.9,190.33,190.33,0,0,1-19.23-16.38c-26.54-25.82-44.63-58.5-57.63-92.89-12.7-33.59-20.48-68.61-28.33-103.57-7.52-33.48-15.14-67.36-28.61-99a257.18,257.18,0,0,0-25-45.31,159.82,159.82,0,0,0-23.11-26.58c-16.25-15-35.63-27.39-56.83-34C87,11.73,75.48,9.88,64,10.77c-12.81,1-24.84,5.71-36.9,9.77-4.08,1.37,8.39,3.45,6.77,3.15q6.79,1.16,13.63,2A22.76,22.76,0,0,0,54.72,26Z"/><path class="cls-1" d="M63.13,20.62q5.19-2,10.47-3.8,13.24-5.13,28,.17L95.3,15.21l13.08,4.2-5.79-2.07c31.34,13.14,57.28,37.71,73.75,67.07l9.57,20.9,4.67,10.27A205.11,205.11,0,0,1,199.7,142c4.61,16.42,7.74,33.17,10.59,50,4,23.67,7.13,47.49,11.45,71.1,2.84,15.51,6.1,30.91,10.28,46.12a326.45,326.45,0,0,0,21.72,57.68,246.66,246.66,0,0,0,31.63,49A209.65,209.65,0,0,0,344,464.81c38.23,21.38,81.87,31,125.37,32.69a304.15,304.15,0,0,0,35.91-1,285,285,0,0,0,35.19-4.66,259.82,259.82,0,0,0,49.39-15.93,191.88,191.88,0,0,0,44.26-26.3c13.74-11,26.18-24.45,34.94-39.79a147.84,147.84,0,0,0,9.82-20.4A136,136,0,0,0,685,367.95c3-14.48,2.67-29.15,1.15-43.75C685,313,682,301.91,678.34,291.25a142.1,142.1,0,0,0-27.22-46.68c-12-13.68-27.07-25.4-43.85-32.55a140.8,140.8,0,0,0-54.64-11.34A144.94,144.94,0,0,0,525,203.34a133,133,0,0,0-26.44,7.59,147.11,147.11,0,0,0-19.66,9.77,140.51,140.51,0,0,0-17.88,13,121.54,121.54,0,0,0-23.15,26.54,174,174,0,0,0-12.08,21.88c-9.3,20.31-14.46,42.23-17.66,64.25a250.69,250.69,0,0,0-2.32,53.2c1.32,19.1,5,38.54,12.3,56.3a176.7,176.7,0,0,0,10.06,20.9,166.58,166.58,0,0,0,13.33,19.55c10.27,13.13,23.11,23.84,36.94,33,3.37,2.23,7.32,4.54,10.87,6.46a227.38,227.38,0,0,0,27.84,12.68,313.8,313.8,0,0,0,52.23,14.39c10.06,1.93,20.2,3.36,30.32,5,13.19,2.07,26.43,3.7,39.77,4.48a463.36,463.36,0,0,0,79.36-2A438.37,438.37,0,0,0,881,518.76a391.22,391.22,0,0,0,69.61-49.15c21.39-18.93,41-40.34,57.15-64,6-8.74,11.64-17.65,16.89-26.84a479.89,479.89,0,0,0,22.15-44.7c13.07-29.67,23.32-60.51,34.4-90.95,8.67-23.82,17.57-47.64,28.63-70.48a338.82,338.82,0,0,1,17.33-31.55,197.46,197.46,0,0,1,11.77-17.49,215.18,215.18,0,0,1,17.86-21.13l-1.31,1.21,7.25-6.38-1.33,1.15c6.25-5,12.54-9.92,19.52-13.9l7-3.77a94.58,94.58,0,0,1,29.51-9.26l-6.81.87,19.57-1.07-7.41-.35L1238,72.26l-7-.83,18.54,4.4-5.13-1.77a123.34,123.34,0,0,1,42,27.46,196.83,196.83,0,0,1,26.41,32.59,241.37,241.37,0,0,1,22.15,41.62,147.69,147.69,0,0,0,8.41,19,226.59,226.59,0,0,1,9.33,24.56,317.45,317.45,0,0,1,11.51,51.08c5.89,40.43,5.64,81.62,2.93,122.3-1.23,18.43-3.17,36.76-5.16,55.12-2.71,24.93-5.6,49.83-8.52,74.74-6,51.3-11.27,102.86-9.61,154.58q.61,20,2.68,39.93a157.23,157.23,0,0,0,4.15,27.61,207.83,207.83,0,0,0,9.43,30.43,126.38,126.38,0,0,0,28.19,43c4.86,4.8,9.47,8,15,11.94a59,59,0,0,0,9.42,5.49,104.87,104.87,0,0,0,19.48,7.61c6.66,2.19,15.14,3.33,22.09,4a139.54,139.54,0,0,0,22.64.14c27.87-1.92,55-11,80.1-23,25.47-12.2,50.35-25.83,72-44.18,22.34-19,41-42.56,51.52-70.07a138.81,138.81,0,0,0,8.74-35,231.51,231.51,0,0,0,1.28-25q-.27-12.4-1.77-24.71-1.46-12-3.52-23.81c-2.38-14.2-5.24-28.33-6.89-42.64a188.82,188.82,0,0,1,.72-49.71,219,219,0,0,1,13.08-48,259.26,259.26,0,0,1,22.18-43.42q6.52-10.28,13.9-20t15.57-18.67l-1.26,1.36,9.63-10.17-1.28,1.29,10-9.73-1.29,1.23,10.39-9.27-1.3,1.16q9.26-7.91,19.19-15t20.46-13.17q10.54-6.12,21.61-11.21,6.59-2.25,13.14-4.64c17.34-6.38,34.21-14.24,49.62-24.51,19-12.65,35.79-29,46.64-49.2a112.15,112.15,0,0,0,7.51-17.35,113.82,113.82,0,0,0,4.7-19.71q.57-5.35,1.08-10.71.3-5.61.13-11.23.44-1.27-.89-1.08a12.79,12.79,0,0,0-4.55,2.82q-4,3.13-7.87,6.51a12.79,12.79,0,0,0-3.62,3.94l-.5,10.59,0-.9a99.32,99.32,0,0,1-3.33,17.91,97.83,97.83,0,0,1-6.09,16,114.35,114.35,0,0,1-13.19,20.64c-11.73,14.55-26.88,26.37-42.91,35.83-13.16,7.77-26.93,14.07-41,19.9q-6.86,2.77-13.59,5.85Q1803.82,322.11,1793,329c-7.16,4.6-14.24,9.43-21,14.65a297.58,297.58,0,0,0-82.51,99.25c-13.67,26.75-23.32,55.91-26.84,85.81a195.46,195.46,0,0,0-.55,40.47c1.22,13.7,3.63,27.25,5.91,40.81l-.16-.95c1.77,10.95,3.36,21.82,4.63,32.84l-.07-.92.88,11.82,0-.92.26,11.86v-.9l-.47,11.86.05-.89-1.22,11.06-2,10.43a124.46,124.46,0,0,1-8.39,24.3,147.68,147.68,0,0,1-24.56,37.67,205.55,205.55,0,0,1-29.51,27.06,289.93,289.93,0,0,1-42.33,26c-10.51,5.37-21,10.72-32,15.21a204.32,204.32,0,0,1-42.56,12.37l-5.06.87q-30.88,5.9-56.83-19.55l-46.51-20.65a117.28,117.28,0,0,1-8.51-14.08,172.59,172.59,0,0,1-12.35-33.26,187.28,187.28,0,0,1-4.15-18.47l-1.18-10q-2-14.9-2.76-29.91a760.75,760.75,0,0,1,0-78.61c1.38-28.87,4.37-57.68,7.5-86.4,3.08-28.24,6.24-56.46,8.91-84.74,3.9-41.23,6.67-82.7,4.48-124.13-2.13-40.14-7.94-80.82-23.13-118.29-3.42-8.43-7.6-16.25-11.43-24.45-2.21-4.72-4.18-9.51-6.49-14.19a245.15,245.15,0,0,0-17.45-29.42q-7.18-10.53-15.35-20.34a184.55,184.55,0,0,0-18.73-19.9,112,112,0,0,0-12.37-9.85,85.52,85.52,0,0,0-13.71-7.75,88.84,88.84,0,0,0-14.69-4.74,80.57,80.57,0,0,0-16-1.75,89.47,89.47,0,0,0-25.26,3.17c-18.48,4.93-34.85,15.13-49.4,27.33-11.75,9.85-21.34,21.94-30.27,34.33-5.62,7.8-10.62,16.12-15.44,24.44a413.52,413.52,0,0,0-19.58,39.49c-17.63,39.69-30.4,81.37-46.65,121.62-8.82,21.84-18.51,43.52-30.58,63.8-12.73,21.4-27.39,41.74-44.51,59.86a376.26,376.26,0,0,1-120.42,85.42c-45.72,20.3-94.92,33.3-144.91,36.66a451.81,451.81,0,0,1-69.61-.53c-13-1.13-25.79-3.06-38.66-5.12-9-1.43-17.95-2.93-26.85-4.82-18.91-4-37.42-9.44-55.06-17.4-36.4-16.44-68.78-48.43-82-86.17l-3.37-10.39a177.8,177.8,0,0,1-6.51-56l0,.76.61-12.27-.06.76,1.24-12.3-.1.76,1.84-12.28-.14.76,2.45-12.39-.18.76c1.9-7.69,3.82-15.32,6.26-22.86a156.11,156.11,0,0,1,11.86-27.29c7.42-13.45,16.94-26,28.73-36,22.77-19.14,52.42-28.49,82-28,27.15.47,54,9.41,75,26.84a126.29,126.29,0,0,1,24.25,27.42,124.15,124.15,0,0,1,10.68,20.28,68,68,0,0,1,3.32,8.62,102.53,102.53,0,0,1,4,13.35l-.19-.92,2,10.08-.14-.92,1.34,10.21-.1-.91.62,10.29,0-.9a117.69,117.69,0,0,1-1,18.67,79.09,79.09,0,0,1-2.77,13.14,115.9,115.9,0,0,1-13.65,31.82A141.15,141.15,0,0,1,614,451.91C597,463.6,578,472,558.4,478.3a212.47,212.47,0,0,1-37,8.46,332.68,332.68,0,0,1-41.1,3,296.78,296.78,0,0,1-82.75-11,228.24,228.24,0,0,1-45.3-18.34,192.34,192.34,0,0,1-39.64-27.37,223,223,0,0,1-26.93-29.16,244.17,244.17,0,0,1-20.73-32.25c-12.67-23.46-21.77-48.7-28.66-74.41-6.65-24.83-11.09-50.2-15.47-75.51-4-23.21-7.82-46.53-13.68-69.37a295.18,295.18,0,0,0-10.39-32.89c-3.58-9.28-8.32-18.08-12.4-27.15a125.22,125.22,0,0,0-11.65-20.16A185.11,185.11,0,0,0,149,44.38c-3.75-3.59-7.64-7-11.66-10.3-6.5-5.35-13.57-10.53-21.19-14.2a96.44,96.44,0,0,0-20.05-7.41,72.82,72.82,0,0,0-17.36-1.79,59.14,59.14,0,0,0-14.93,2.49q-3.38,1.19-6.65,2.66l1.23-.48L47.72,18.27c-.5.14-1.88.36-1.9,1.14,0,1.28,2.57,1.33,3.28,1.41a76,76,0,0,0,7.65.38C58.88,21.22,61.1,21.37,63.13,20.62Z"/><path class="cls-1" d="M53.33,33.7a31.35,31.35,0,0,1,13.19-5.64l-1.44.28A58.72,58.72,0,0,1,79,27a64.65,64.65,0,0,1,13.59,1.78,95.54,95.54,0,0,1,25.84,10.7,158.3,158.3,0,0,1,39.54,33.17,149.59,149.59,0,0,1,17.51,24.34l3.54,6.52q3.91,8.65,8.56,16.94c13.77,28.35,20,59.6,25.9,90.34l-.29-1.59c6.06,34,11.06,68.27,19.92,101.66,9.55,36,23.59,71.07,45.43,101.44,11.57,16.09,25.28,31.11,41.11,43.11A215.05,215.05,0,0,0,367.42,483,273.38,273.38,0,0,0,421,499c9.17,1.72,18.42,2.91,27.7,3.82q10.41,1,20.86,1.08,10.4.38,20.8-.16c17-.88,34-2.71,50.59-6.63A266.08,266.08,0,0,0,579.21,485a198.18,198.18,0,0,0,35.43-18.79,148.56,148.56,0,0,0,36.54-34.75,130.42,130.42,0,0,0,10.94-17.87,124.91,124.91,0,0,0,8.12-20.2c4.51-14.35,5.56-30.11,4.54-45-2.06-30.38-13.82-60-34.25-82.66a117,117,0,0,0-32-25.18,112.93,112.93,0,0,0-24.17-9.78,131.94,131.94,0,0,0-20.59-4c-13.8-1.38-28-1.15-41.64,1.73a143.4,143.4,0,0,0-20,5.61A93.88,93.88,0,0,0,488,240.39a91.17,91.17,0,0,0-13.42,7.93,119.71,119.71,0,0,0-30.4,30.87,177.65,177.65,0,0,0-20,42.06c-4.73,14.17-7.66,29.05-9.85,43.81A232.74,232.74,0,0,0,413,420.87a181.38,181.38,0,0,0,9.6,42.82,156,156,0,0,0,9,20.2,134,134,0,0,0,15.76,23.35,146.25,146.25,0,0,0,35.44,30.81c16.69,10.49,34.85,18,53.7,23.64a371.28,371.28,0,0,0,43.62,10c9.55,1.64,19.08,3.3,28.69,4.56,12.9,1.69,25.84,2.95,38.85,3.39a438.55,438.55,0,0,0,61.94-2,433.36,433.36,0,0,0,140.08-38.56,397.14,397.14,0,0,0,65.53-38.61,379.73,379.73,0,0,0,51.43-45.18c17.72-18.6,32.9-39.52,46.07-61.54,5.57-9.31,10.55-19,15.36-28.71,7.17-14.45,13.49-29.49,19.43-44.48,9.68-24.46,18.38-49.29,27.82-73.85,8.08-21,16.55-41.91,26.72-62a307.35,307.35,0,0,1,17.76-31.29l8-11.65a229.08,229.08,0,0,1,17.75-21.6l-1,1,6.95-6.37-1,.92,7.27-6.16-1.08.88,7.54-5.78-1.12.84c6.61-4.52,13.26-9,20.6-12.28A101.44,101.44,0,0,1,1202,86.82a74.66,74.66,0,0,1,19.1-2.25l7.73.49a73.8,73.8,0,0,1,14.45,3.38L1239.65,87l10.53,4.07-3.58-1.66,10.2,4.91-3.47-1.93,9.86,5.68-3.35-2.2,9.52,6.38-3.21-2.45a179,179,0,0,1,14.91,11.94q5.69,5.13,10.93,10.72a221,221,0,0,1,17.36,21,240.32,240.32,0,0,1,15,23.12q3.87,6.8,7.26,13.86,4.6,10.51,10.2,20.53l-.72-1.43c3.65,8.16,7.27,16.29,10.29,24.71a297.28,297.28,0,0,1,9.34,32c2.06,8.7,3.76,17.44,5.17,26.27,1.87,11.69,3.07,23.38,4.2,35.17l-.14-1.61,1,15.24-.09-1.61.63,15.34,0-1.61c.25,14.41.39,28.79-.12,43.2q-.61,17.46-1.87,34.89c-2.19,30.4-5.59,60.73-9,91-7.94,70.74-16.28,142.06-9.28,213.26,1.17,11.93,2.6,23.15,5.47,34.67,1.57,6.3,3.38,12.52,5.53,18.65a157.23,157.23,0,0,0,7.78,18.36,104.26,104.26,0,0,0,13.6,20.74,102.45,102.45,0,0,0,15.9,15.07A94.44,94.44,0,0,0,1424.75,847a74.25,74.25,0,0,0,14.73,4.2l10.19,1.53a99.9,99.9,0,0,0,15.47.59,110.75,110.75,0,0,0,15.42-.93,224.28,224.28,0,0,0,48.08-12c8.58-3.1,16.91-6.79,25.2-10.59,9.8-4.48,19.52-9.24,28.85-14.65a260.55,260.55,0,0,0,42.76-30.46,167.46,167.46,0,0,0,21.47-22.89,153.88,153.88,0,0,0,17-26.81,151.36,151.36,0,0,0,9.6-25.52,156.57,156.57,0,0,0,4.87-28.28,146.09,146.09,0,0,0,.27-17.66q-.08-8.77-1-17.49c-.93-9.44-2.21-18.83-3.61-28.21-1.33-8.9-2.73-17.79-3.92-26.71a256.94,256.94,0,0,1-2.33-33.75,151.49,151.49,0,0,1,1.31-19.72,159.91,159.91,0,0,1,2.88-19.06l2.85-12.32a244.77,244.77,0,0,1,7.54-23.85l-.49,1.25,5.11-12.79-.54,1.24,5.68-12.52-.59,1.22,6.23-12.23-.64,1.2,6.76-11.94-.69,1.17,7.27-11.63-.74,1.14,7.76-11.3-.79,1.11,8.23-11-.84,1.08,8.69-10.59-.88,1,9.13-10.21-.93,1,9.56-9.81-1,1,10-9.39-1,.93,10.37-8.94-1.07.89,10.76-8.47-1.11.84,11.13-8-1.15.8,11.48-7.47-1.19.75,11.82-6.94-1.23.69,12.14-6.38-1.27.64c26.8-10.27,53.65-22.2,76-40.55,13-10.69,25.06-23.29,33.09-38.25a114.15,114.15,0,0,0,8.77-21,81.15,81.15,0,0,0,3.34-14,116.65,116.65,0,0,0,1.44-20.5,6.27,6.27,0,0,0-4.8.67q-8.34,3-16.51,6.41t-16.27,7a6.27,6.27,0,0,0-3.9,2.88l-2,7.34a61.76,61.76,0,0,1-4.1,10.11,87.29,87.29,0,0,1-9.08,15.15,145.24,145.24,0,0,1-19.71,21c-9.59,8.51-20.27,16-31,22.9-11.29,7.28-22.87,14.1-34.37,21-9,5.42-17.92,10.91-26.61,16.78a272.89,272.89,0,0,0-26,20.33A288.49,288.49,0,0,0,1722.81,371a327,327,0,0,0-65.3,106.35c-14,37.57-21.27,77.91-19.46,118,.68,14.94,1.77,29.89,2.2,44.84.44,15.33.25,30.76-2.64,45.87A113.51,113.51,0,0,1,1623.82,723a132.58,132.58,0,0,1-24.21,29.6c-22.23,20.56-50,34.38-78.17,45l-4.67,1.7a60.79,60.79,0,0,1-11.56,3.46c-4.69,1.11-9.43,2-14.19,2.79-11.54,1.84-24,2.45-35.55.38a78,78,0,0,1-24.6-8.48,69.33,69.33,0,0,1-23.06-21.28c-5.95-8.56-10.13-18.76-13.09-28.7a203,203,0,0,1-5.86-26.21,123.76,123.76,0,0,1-1.53-16.39l-.07-3.07q-1.83-19.24-2.4-38.56c-.85-32.25.41-64.46,2.63-96.63,2-29.09,4.73-58.14,7.11-87.2,2.23-27.23,5-54.52,5.47-81.86.86-46.57-1.71-93.35-11.95-138.9-9.52-42.36-25.91-83.32-51.38-118.7C1319.94,116.62,1299,96.68,1274,82.33c-21.87-12.56-47.58-19.61-72.86-17-29.19,3-55.9,18.48-76.69,38.64-26.13,25.34-45.85,56.93-61.85,89.4-20.88,42.35-36.83,86.87-56.86,129.61-9.36,20-19.51,39.77-31.76,58.15a348.63,348.63,0,0,1-34.7,44.13,300.71,300.71,0,0,1-25,23.7A315.65,315.65,0,0,1,887,470a372.57,372.57,0,0,1-60.42,33.58,393.89,393.89,0,0,1-121.49,31.08,396.66,396.66,0,0,1-63.16.73c-11.68-.79-23.32-2-34.88-3.88L593.16,529q-14.24-2.76-28.33-6.16c-24.45-7.06-48.64-17.16-68.51-33.36a114.18,114.18,0,0,1-25.83-29.21c-7.39-12.24-12-25.83-14.85-39.8a141,141,0,0,1-2.42-21.63,164.81,164.81,0,0,1,.4-22.18,227.9,227.9,0,0,1,6.23-35.83,143.88,143.88,0,0,1,7.06-20.55,119.29,119.29,0,0,1,19-31.71c5.08-6,10.94-11.82,17.74-15.9a90.38,90.38,0,0,1,26.51-10.55,96.19,96.19,0,0,1,36.21-.46,94,94,0,0,1,27.13,9.9,81.2,81.2,0,0,1,28.31,27,95.36,95.36,0,0,1,14.4,62.09,83.77,83.77,0,0,1-8.93,29.71A108,108,0,0,1,604,420.76c-10,9-21.5,15.88-33.59,21.52a176.56,176.56,0,0,1-43.88,13.43,137.88,137.88,0,0,1-20.08,2.14l-7.53.11q-11.75.74-23.53.44a260.58,260.58,0,0,1-58.3-8.2,221.52,221.52,0,0,1-53.65-22.1,181,181,0,0,1-48.2-40.94c-26.46-31.65-42.27-70.72-54-109.89-11.87-39.76-20.25-80.48-33-120-7.1-22.08-15.9-43.71-27.41-63.87a207.43,207.43,0,0,0-17.32-26.27,178.56,178.56,0,0,0-20-21.84c-20.73-18.7-46-33-73.46-38.72A118.61,118.61,0,0,0,49.92,5.13a116.71,116.71,0,0,0-19.3,4.64q-5.49,1.7-10.92,3.56A40.93,40.93,0,0,0,7.22,18.62a7.16,7.16,0,0,0,4.46,2.71q9,3.34,18.13,6.26t18.32,5.66A7.16,7.16,0,0,0,53.33,33.7Z"/></g></g></svg>